<?xml version="1.0" encoding="UTF-8"?><svg version="1.1" width="129px" height="38px" viewBox="0 0 129.0 38.0" xmlns="http://www.w3.org/2000/svg" xmlns:xlink="http://www.w3.org/1999/xlink"><defs><clipPath id="i0"><path d="M1440,0 L1440,1156 L0,1156 L0,0 L1440,0 Z"></path></clipPath><clipPath id="i1"><path d="M122.895408,0 C125.296695,0 127.243253,1.93158428 127.243253,4.31538886 L127.243253,32.1828461 C127.243253,34.5656612 125.296695,36.498235 122.895408,36.498235 L4.34884149,36.498235 C1.94755502,36.498235 0,34.5656612 0,32.1828461 L0,4.31538886 C0,1.93158428 1.94755502,0 4.34884149,0 L122.895408,0 Z"></path></clipPath><clipPath id="i2"><path d="M123.371079,0 C126.030643,0 128.19559,2.14730425 128.19559,4.78739998 L128.19559,32.6548572 C128.19559,35.294953 126.030643,37.4422572 123.371079,37.4422572 L4.82451161,37.4422572 C2.16494723,37.4422572 0,35.294953 0,32.6548572 L0,4.78739998 C0,2.14730425 2.16494723,0 4.82451161,0 L123.371079,0 Z M123.371079,0.944022237 L4.82451161,0.944022237 C2.68948074,0.944022237 0.951340238,2.66780288 0.951340238,4.78739998 L0.951340238,32.6548572 C0.951340238,34.7744543 2.68948074,36.498235 4.82451161,36.498235 L123.371079,36.498235 C125.507107,36.498235 127.24425,34.7744543 127.24425,32.6548572 L127.24425,4.78739998 C127.24425,2.66780288 125.507107,0.944022237 123.371079,0.944022237 Z"></path></clipPath><clipPath id="i3"><path d="M3.43040925,0 L5.44378025,6.15098765 L4.23017326,6.15098765 L3.66874291,4.40741619 L1.70124365,4.40741619 L1.16773524,6.15098765 L0,6.15098765 L1.98644628,0 L3.43040925,0 Z M2.67651698,0.89454518 L2.65756995,0.89454518 C2.56582645,1.25077999 2.47408295,1.67925129 2.36339242,2.04439197 L1.88572787,3.55937944 L3.476281,3.55937944 L2.98864433,2.04439197 C2.86897889,1.67034542 2.76826048,1.25077999 2.67651698,0.89454518 Z"></path></clipPath><clipPath id="i4"><path d="M1.22357911,0 L1.94954944,2.25417469 C2.07818979,2.64603298 2.1709305,3.00226778 2.2536991,3.36740846 L2.28162103,3.36740846 C2.36438963,3.00226778 2.46510804,2.65493885 2.58477348,2.25417469 L3.30077169,0 L4.48745395,0 L2.77723539,4.44402921 L1.66434681,4.44402921 L0,0 L1.22357911,0 Z"></path></clipPath><clipPath id="i5"><path d="M1.94057453,0 C3.37556259,0 3.78840835,0.902461509 3.78840835,1.8791386 L3.78840835,3.47625798 C3.78840835,3.87702214 3.80735538,4.26986997 3.86220204,4.54397286 L2.84205417,4.54397286 L2.75928558,4.05118138 L2.73136364,4.05118138 C2.46510804,4.39752077 1.99542119,4.64391652 1.40706612,4.64391652 C0.505586479,4.64391652 0,3.99675662 0,3.32090003 C0,2.20766626 1.00319526,1.63274286 2.65756995,1.64164873 L2.65756995,1.56842269 C2.65756995,1.2774976 2.53890173,0.793611985 1.74811262,0.793611985 C1.30634771,0.793611985 0.846632979,0.930168661 0.543480534,1.12213964 L0.322099473,0.391858287 C0.653173853,0.190981438 1.23255402,0 1.94057453,0 Z M2.68549189,2.37193008 C1.88572787,2.36302421 1.12186349,2.52728804 1.12186349,3.20215509 C1.12186349,3.64052181 1.40706612,3.84040912 1.76606243,3.84040912 C2.22577716,3.84040912 2.54687942,3.54849449 2.65756995,3.22986224 C2.68549189,3.14773033 2.68549189,3.06559842 2.68549189,2.9834665 L2.68549189,2.37193008 Z"></path></clipPath><clipPath id="i6"><path d="M128.194593,0 L128.194593,37.4422572 L0,37.4422572 L0,0 L128.194593,0 Z"></path></clipPath><clipPath id="i7"><path d="M1.19465996,1.85242099 L1.19465996,6.2964502 L0.0638215674,6.2964502 L0.0638215674,1.85242099 L1.19465996,1.85242099 Z M0.634226826,0 C1.02114508,0 1.25947874,0.265197022 1.26845365,0.611536417 C1.26845365,0.940064072 1.02114508,1.21416696 0.634226826,1.21416696 C0.248305785,1.21416696 0,0.940064072 0,0.611536417 C0,0.265197022 0.257280693,0 0.634226826,0 Z"></path></clipPath><clipPath id="i8"><path d="M1.1308384,0 L1.1308384,6.48842118 L0,6.48842118 L0,0 L1.1308384,0 Z"></path></clipPath><clipPath id="i9"><path d="M1.93957732,0 C3.37456537,0 3.78840835,0.902461509 3.78840835,1.8791386 L3.78840835,3.47625798 C3.78840835,3.87702214 3.80635817,4.26986997 3.86120482,4.54397286 L2.84105696,4.54397286 L2.75828836,4.05118138 L2.73036643,4.05118138 C2.46411083,4.39752077 1.99542119,4.64391652 1.40606891,4.64391652 C0.505586479,4.64391652 0,3.99675662 0,3.32090003 C0,2.20766626 1.00219805,1.63274286 2.65657274,1.64164873 L2.65657274,1.56842269 C2.65657274,1.2774976 2.53790451,0.793611985 1.74711541,0.793611985 C1.30535049,0.793611985 0.845635767,0.930168661 0.542483322,1.12213964 L0.321102261,0.391858287 C0.652176641,0.190981438 1.23155681,0 1.93957732,0 Z M2.68449468,2.37193008 C1.88473066,2.36302421 1.12186349,2.52728804 1.12186349,3.20215509 C1.12186349,3.64052181 1.40606891,3.84040912 1.76506522,3.84040912 C2.22477995,3.84040912 2.54687942,3.54849449 2.65657274,3.22986224 C2.68449468,3.14773033 2.68449468,3.06559842 2.68449468,2.9834665 L2.68449468,2.37193008 Z"></path></clipPath><clipPath id="i10"><path d="M1.16773524,0 L1.16773524,2.65493885 L1.18668227,2.65493885 C1.46191278,2.22646754 1.94954944,1.94345878 2.62167032,1.94345878 C3.71561187,1.94345878 4.49642886,2.84690983 4.48745395,4.19763347 C4.48745395,5.79376331 3.46730609,6.58836483 2.45613313,6.58836483 C1.87575575,6.58836483 1.36119437,6.3686867 1.03909489,5.82147046 L1.02114508,5.82147046 L0.965301206,6.48842118 L0,6.48842118 C0.0189470278,6.18661113 0.0368968436,5.69381965 0.0368968436,5.24654706 L0.0368968436,0 L1.16773524,0 Z M2.20683013,2.81920267 C1.74711541,2.81920267 1.32429752,3.14871987 1.20463208,3.64151135 C1.18668227,3.72265373 1.16773524,3.82358692 1.16773524,3.93243644 L1.16773524,4.65381193 C1.16773524,4.74484971 1.17671015,4.83687704 1.19565718,4.91801941 C1.31532261,5.37518741 1.71021856,5.70371506 2.19785523,5.70371506 C2.90587574,5.70371506 3.33766853,5.14660341 3.33766853,4.24315236 C3.33766853,3.45844624 2.9607224,2.81920267 2.20683013,2.81920267 Z"></path></clipPath><clipPath id="i11"><path d="M1.1308384,0 L1.1308384,6.48842118 L0,6.48842118 L0,0 L1.1308384,0 Z"></path></clipPath><clipPath id="i12"><path d="M2.18888032,0 C3.64181819,0 4.11948273,1.18645981 4.11948273,2.16214737 C4.11948273,2.37193008 4.10153291,2.53619391 4.0835831,2.63712711 L1.08596386,2.63712711 C1.11388579,3.43964496 1.74711541,3.7869739 2.46510804,3.7869739 C2.98864433,3.7869739 3.35661556,3.70484198 3.70663697,3.58609705 L3.87217416,4.35200188 C3.48625312,4.51626571 2.95174749,4.63600019 2.30854576,4.63600019 C0.855607887,4.63600019 0,3.75036088 0,2.39073137 C0,1.15875266 0.754889476,0 2.18888032,0 Z M2.12505875,0.765904833 C1.42601315,0.765904833 1.13183561,1.39624253 1.08596386,1.85242099 L3.05346311,1.85242099 C3.06243802,1.44176142 2.87895101,0.765904833 2.12505875,0.765904833 Z"></path></clipPath><clipPath id="i13"><path d="M2.31851788,0 C3.65179031,0 4.54429504,0.930168661 4.54429504,2.28188184 C4.54429504,3.9146247 3.38453749,4.64490606 2.2536991,4.64490606 C0.985245446,4.64490606 0,3.7869739 0,2.35411834 C0,0.893555639 0.966298418,0 2.31851788,0 Z M2.29059594,0.812413266 C1.49083192,0.812413266 1.16873245,1.58722397 1.16873245,2.32740073 C1.16873245,3.18434335 1.60052524,3.83249279 2.27264612,3.83249279 C2.92482277,3.83249279 3.37556259,3.2120505 3.37556259,2.30859945 C3.37556259,1.61493112 3.06343523,0.812413266 2.29059594,0.812413266 Z"></path></clipPath><clipPath id="i14"><path d="M2.50100767,0 C3.28282187,0 4.09156079,0.501697352 4.09156079,1.90684575 L4.09156079,4.54397286 L2.9607224,4.54397286 L2.9607224,2.03449656 C2.9607224,1.39624253 2.72139152,0.911367379 2.10511451,0.911367379 C1.6553719,0.911367379 1.34324455,1.23098916 1.2225819,1.56842269 C1.18568506,1.66045001 1.16773524,1.79700669 1.16773524,1.92465749 L1.16773524,4.54397286 L0.0368968436,4.54397286 L0.0368968436,1.42296014 C0.0368968436,0.911367379 0.0179498158,0.482896071 0,0.099943654 L0.983251022,0.099943654 L1.03909489,0.765904833 L1.06701683,0.765904833 C1.26845365,0.419565438 1.75609031,0 2.50100767,0 Z"></path></clipPath><clipPath id="i15"><path d="M1.74711541,0 L1.74711541,1.14094092 L2.82310714,1.14094092 L2.82310714,1.9800718 L1.74711541,1.9800718 L1.74711541,3.93342599 C1.74711541,4.48064223 1.89370557,4.75375558 2.32649557,4.75375558 C2.52793239,4.75375558 2.63862293,4.74484971 2.76726327,4.70823669 L2.7862103,5.55726298 C2.6196759,5.62158315 2.31752066,5.67600791 1.96749926,5.67600791 C1.54468137,5.67600791 1.20463208,5.5384617 0.993223142,5.31086724 C0.744917356,5.05556563 0.634226826,4.64490606 0.634226826,4.06107679 L0.634226826,1.9800718 L0,1.9800718 L0,1.14094092 L0.634226826,1.14094092 L0.634226826,0.309726373 L1.74711541,0 Z"></path></clipPath><clipPath id="i16"><path d="M1.1308384,0 L1.1308384,2.64603298 L1.14878821,2.64603298 C1.28740068,2.43625026 1.47986259,2.26308056 1.71021856,2.14433563 C1.94057453,2.01668482 2.20683013,1.94345878 2.49203276,1.94345878 C3.25489993,1.94345878 4.05466395,2.44614567 4.05466395,3.86910581 L4.05466395,6.48842118 L2.92382555,6.48842118 L2.92382555,3.98785075 C2.92382555,3.34860718 2.68449468,2.8558157 2.05924276,2.8558157 C1.61847506,2.8558157 1.30535049,3.14871987 1.17671015,3.48516385 C1.1398133,3.58609705 1.1308384,3.70484198 1.1308384,3.82358692 L1.1308384,6.48842118 L0,6.48842118 L0,0 L1.1308384,0 Z"></path></clipPath><clipPath id="i17"><path d="M2.18888032,0 C3.64181819,0 4.11948273,1.18645981 4.11948273,2.16214737 C4.11948273,2.37193008 4.10153291,2.53619391 4.08258589,2.63712711 L1.08496664,2.63712711 C1.11288858,3.43964496 1.74711541,3.7869739 2.46411083,3.7869739 C2.98864433,3.7869739 3.35661556,3.70484198 3.70563975,3.58609705 L3.87117694,4.35200188 C3.48625312,4.51626571 2.95075028,4.63600019 2.30854576,4.63600019 C0.855607887,4.63600019 0,3.75036088 0,2.39073137 C0,1.15875266 0.753892264,0 2.18888032,0 Z M2.12406154,0.765904833 C1.42601315,0.765904833 1.13183561,1.39624253 1.08496664,1.85242099 L3.0524659,1.85242099 C3.06243802,1.44176142 2.8779538,0.765904833 2.12406154,0.765904833 Z"></path></clipPath><clipPath id="i18"><path d="M14.3962948,0.00144449566 L14.67654,0.0196295404 C15.4593514,0.0423889863 17.6901147,0.325397749 19.1270971,2.40838182 C19.0114206,2.47666016 16.4715216,3.95899277 16.4994436,7.00183174 C16.5313543,10.6512594 19.7154522,11.8565205 19.7543435,11.8693846 C19.7506998,11.8859403 19.7300549,11.9605365 19.6905718,12.0821874 L19.6340322,12.2500517 C19.4256117,12.8486921 18.9345585,14.0633495 18.0600803,15.2912178 C17.0628683,16.7725608 16.0197846,18.2182804 14.3594266,18.244998 C12.7469348,18.2816111 12.2044515,17.304934 10.3546233,17.304934 C8.48684521,17.304934 7.91045668,18.2182804 6.36378089,18.2816111 C4.78319988,18.339994 3.57557616,16.7023034 2.54146733,15.236793 C0.476241299,12.2394729 -1.13226164,6.79600719 1.02371068,3.09017566 C2.06779163,1.27337815 3.97346375,0.103740536 6.01076784,0.071085679 C7.59134885,0.0394203629 9.06323374,1.13286331 10.0365126,1.13286331 C10.9888501,1.13286331 12.8047731,-0.174320521 14.67654,0.0196295404 Z"></path></clipPath><clipPath id="i19"><path d="M4.87897414,0 C5.03952527,1.42493922 4.46912001,2.83008763 3.63744521,3.86217902 C2.76887357,4.87843776 1.38175169,5.65522755 0.0285350172,5.55627344 C-0.149965929,4.18575897 0.537113132,2.72618581 1.30496636,1.83658833 C2.17154358,0.826266842 3.67633648,0.0534352209 4.87897414,0 Z"></path></clipPath><clipPath id="i20"><path d="M6.57561586,0 L10.6601962,12.5325384 L8.50621827,12.5325384 L7.32551928,8.85045585 L3.22398636,8.85045585 L2.09813403,12.5325384 L0,12.5325384 L4.06762771,0 L6.57561586,0 Z M5.26627652,1.67331405 L5.22838246,1.67331405 C5.10273375,2.20667672 4.90229414,2.99336191 4.62806085,4.03336964 L3.57899383,7.30578215 L6.97051181,7.30578215 L5.90449219,4.03336964 C5.7888156,3.69989428 5.57840387,2.91221954 5.26627652,1.67331405 Z"></path></clipPath><clipPath id="i21"><path d="M5.00301255,0 C6.07501544,0 6.97350345,0.421544521 7.69149608,1.26463356 C8.40948871,2.10871214 8.76848503,3.21699821 8.76848503,4.59147084 C8.76848503,6.12921775 8.3506532,7.34338471 7.51299513,8.23595081 C6.76309172,9.0295628 5.83269293,9.42537925 4.72179877,9.42537925 C3.52314996,9.42537925 2.65956438,8.99690794 2.13602808,8.14293395 L2.09913124,8.14293395 L2.09913124,12.9016372 L0.0747908992,12.9016372 L0.0747908992,3.16059436 C0.0747908992,2.19381268 0.0498605995,1.20328201 0,0.186033732 L1.7800234,0.186033732 L1.89171114,1.61789974 L1.93060241,1.61789974 C2.60471772,0.539299915 3.62985164,0 5.00301255,0 Z M4.34784428,1.59711938 C3.84724386,1.59711938 3.39251519,1.76336229 2.98864433,2.08991086 C2.58277905,2.4204176 2.31752066,2.85086799 2.19286917,3.38423066 C2.13004481,3.63260548 2.09913124,3.83546141 2.09913124,3.99576708 L2.09913124,5.50283822 C2.09913124,6.15989352 2.30156527,6.7150261 2.70643334,7.16625685 C3.11329583,7.62045623 3.64082098,7.84409252 4.29100319,7.84409252 C5.05287315,7.84409252 5.64621429,7.55514652 6.07002938,6.97230679 C6.4958389,6.38847753 6.70724784,5.62059361 6.70724784,4.66568642 C6.70724784,3.78598436 6.50680823,3.06065071 6.10792344,2.48968548 C5.67014737,1.8959608 5.08278951,1.59711938 4.34784428,1.59711938 Z"></path></clipPath><clipPath id="i22"><path d="M5.00201534,0 C6.07501544,0 6.97150902,0.421544521 7.69049887,1.26463356 C8.4084915,2.10871214 8.7664906,3.21699821 8.7664906,4.59147084 C8.7664906,6.12921775 8.34865878,7.34338471 7.51100071,8.23595081 C6.76109729,9.0295628 5.83169572,9.42537925 4.71880714,9.42537925 C3.52115554,9.42537925 2.65956438,8.99690794 2.13503087,8.14293395 L2.09713681,8.14293395 L2.09713681,12.9016372 L0.0747908992,12.9016372 L0.0747908992,3.16059436 C0.0747908992,2.19381268 0.0478661755,1.20328201 0,0.186033732 L1.77902619,0.186033732 L1.89171114,1.61789974 L1.93060241,1.61789974 C2.60272329,0.539299915 3.62686001,0 5.00201534,0 Z M4.34584985,1.59711938 C3.84524943,1.59711938 3.39151798,1.76336229 2.98764712,2.08991086 C2.58078463,2.4204176 2.31652345,2.85086799 2.19187195,3.38423066 C2.12805039,3.63260548 2.09713681,3.83546141 2.09713681,3.99576708 L2.09713681,5.50283822 C2.09713681,6.15989352 2.29957085,6.7150261 2.70543613,7.16625685 C3.11229862,7.62045623 3.63782934,7.84409252 4.29000598,7.84409252 C5.05087873,7.84409252 5.64621429,7.55514652 6.06903217,6.97230679 C6.49284727,6.38847753 6.70724784,5.62059361 6.70724784,4.66568642 C6.70724784,3.78598436 6.50680823,3.06065071 6.10592901,2.48968548 C5.66815295,1.8959608 5.08278951,1.59711938 4.34584985,1.59711938 Z"></path></clipPath><clipPath id="i23"><path d="M4.48246789,0 C5.63225332,0 6.58758241,0.198897767 7.34845515,0.595703759 L6.84286867,2.23141524 C6.13085931,1.84846283 5.32610924,1.65550231 4.42562681,1.65550231 C3.71262024,1.65550231 3.15817037,1.82867201 2.75928558,2.17600094 C2.42322514,2.48572731 2.2536991,2.86472157 2.2536991,3.31001507 C2.2536991,3.80478564 2.44616101,4.21544521 2.83307926,4.53605653 C3.1691397,4.83390841 3.78142787,5.15649882 4.66994375,5.5048173 C5.75690482,5.93823631 6.55467441,6.44587091 7.06724137,7.02772109 C7.57980834,7.61155036 7.83609182,8.33688401 7.83609182,9.20372204 C7.83609182,10.2694578 7.46413174,11.1362959 6.71323112,11.8062152 C5.89053122,12.5384756 4.74473465,12.9026268 3.27484417,12.9026268 C1.91664144,12.9026268 0.825691528,12.643367 0,12.1228684 L0.469686847,10.4495543 C1.35820273,10.982917 2.33247884,11.248114 3.39550683,11.248114 C4.158374,11.248114 4.75071792,11.0789025 5.17652744,10.7375108 C5.60034254,10.3961191 5.81274869,9.93895109 5.81274869,9.3689754 C5.81274869,8.86035126 5.63723938,8.43089041 5.28821518,8.08356148 C4.9401882,7.735243 4.35582197,7.41265259 3.54409141,7.11480071 C1.33327243,6.29447112 0.229358758,5.09712635 0.229358758,3.52078733 C0.229358758,2.48968548 0.615279798,1.6456069 1.39111073,0.988551587 C2.16494723,0.329517196 3.19506722,0 4.48246789,0 Z"></path></clipPath><clipPath id="i24"><path d="M3.31672708,0 L3.31672708,2.24922698 L5.54649309,2.24922698 L5.54649309,3.75629812 L3.31672708,3.75629812 L3.31672708,8.14392349 C3.31672708,9.26012588 3.71062581,9.81723753 4.49842329,9.81723753 C4.85841681,9.81723753 5.15857762,9.78656176 5.39591408,9.72521021 L5.45175795,11.2491035 C5.05486758,11.3985243 4.52833965,11.4717503 3.87915464,11.4717503 C3.07939062,11.4717503 2.45413871,11.2303023 2.00539331,10.7483957 C1.55664792,10.2645101 1.33028079,9.45110732 1.33028079,8.31214548 L1.33028079,3.75629812 L0,3.75629812 L0,2.24922698 L1.33028079,2.24922698 L1.33028079,0.595703759 L3.31672708,0 Z"></path></clipPath><clipPath id="i25"><path d="M4.53332571,0 C5.86859256,0 6.9445843,0.440345802 7.75631486,1.32004787 C8.53214579,2.17699048 8.91806683,3.27834976 8.91806683,4.63006294 C8.91806683,6.01838914 8.51918203,7.15834052 7.71941801,8.05090662 C6.88076273,8.96920079 5.76887136,9.42636879 4.38474112,9.42636879 C3.04648263,9.42636879 1.98345465,8.98602299 1.1896739,8.10632092 C0.39589316,7.22661886 0,6.11635371 0,4.77948365 C0,3.37730387 0.407859704,2.23141524 1.22756796,1.33983869 C2.04328737,0.446283049 3.14620383,0 4.53332571,0 Z M4.45953202,1.46946858 C3.64480982,1.46946858 3.0275356,1.82966155 2.60372051,2.55004749 C2.24073534,3.14773033 2.0622344,3.87405352 2.0622344,4.73396476 C2.0622344,5.56616885 2.24073534,6.28061754 2.60372051,6.8763213 C3.04049936,7.59670724 3.65278752,7.95690021 4.4415822,7.95690021 C5.2144215,7.95690021 5.82072638,7.59175954 6.25750524,6.85752002 C6.63145973,6.24895223 6.81893559,5.52757674 6.81893559,4.69438311 C6.81893559,3.86217902 6.63844022,3.14773033 6.27545505,2.55004749 C5.85163996,1.82966155 5.24533507,1.46946858 4.45953202,1.46946858 Z"></path></clipPath><clipPath id="i26"><path d="M4.36579409,0 C4.55227273,0 4.72179877,0.0128640347 4.87038336,0.0356234806 L4.87038336,1.95137511 C4.67094096,1.91575162 4.45853481,1.8959608 4.23416211,1.8959608 C3.52314996,1.8959608 2.97169173,2.16412645 2.58477348,2.69649957 C2.24871304,3.16752115 2.079187,3.76322491 2.079187,4.48064223 L2.079187,9.22153378 L0.0568410834,9.22153378 L0.0737936873,3.03195402 C0.0737936873,1.98996721 0.0488633875,1.04198681 0,0.186033732 L1.76207359,0.186033732 L1.83686449,1.91575162 L1.89071393,1.91575162 C2.1041173,1.32103741 2.44217216,0.843089041 2.9028841,0.484875153 C3.35262671,0.162284745 3.84126058,0 4.36579409,0 Z"></path></clipPath><clipPath id="i27"><path d="M4.30895301,0 C5.62028677,0 6.61550434,0.48190653 7.29161407,1.44868821 C7.8261197,2.21756167 8.09337251,3.16554207 8.09337251,4.29361896 C8.09337251,4.65480147 8.06844221,4.95661151 8.01957882,5.20498634 L1.95054665,5.20498634 C1.97348253,6.09755243 2.26865728,6.78033581 2.83008763,7.25234693 C3.34066017,7.67290191 4.00480335,7.88169509 4.81653391,7.88169509 C5.7140247,7.88169509 6.53273575,7.74019071 7.27067262,7.45520286 L7.58878324,8.84946631 C6.72719208,9.22153378 5.71003585,9.40855705 4.53332571,9.40855705 C3.12326795,9.40855705 2.01436822,8.9959184 1.20862093,8.1706411 C0.404868068,7.34734288 0,6.24004636 0,4.85172015 C0,3.48912202 0.374951708,2.35411834 1.12585234,1.44868821 C1.91065817,0.48190653 2.97368615,0 4.30895301,0 Z M4.158374,1.39327391 C3.49821966,1.39327391 2.9607224,1.6673768 2.54887385,2.21261396 C2.21081898,2.64702252 2.01137658,3.16554207 1.95054665,3.77312032 L6.16376731,3.77312032 C6.17872549,3.17939565 6.04709351,2.66483426 5.771863,2.2304257 C5.42184159,1.67232451 4.8823499,1.39327391 4.158374,1.39327391 Z"></path></clipPath></defs><g transform="translate(-584.0 -1025.0)"><g clip-path="url(#i0)"><g transform="translate(0.0 932.0)"><g transform="translate(584.0 92.95417264319191)"><g transform=""><g transform="translate(0.4753709555732044 0.6323167810566765)"><g clip-path="url(#i1)"><polygon points="0,0 127.243253,0 127.243253,36.498235 0,36.498235 0,0" stroke="none" fill="#000000"></polygon></g></g><g transform="translate(-0.00019944239798519448 0.16010775457739967)"><g clip-path="url(#i2)"><polygon points="0,0 128.19559,0 128.19559,37.4422572 0,37.4422572 0,0" stroke="none" fill="#A6A8AA"></polygon></g></g><g transform="translate(40.97743508793002 6.399857248018169)"><g clip-path="url(#i3)"><polygon points="0,0 5.44378025,0 5.44378025,6.15098765 0,6.15098765 0,0" stroke="none" fill="#FDFDFD"></polygon></g></g><g transform="translate(46.88840915791218 8.106716740419706)"><g clip-path="url(#i4)"><polygon points="0,0 4.48745395,0 4.48745395,4.44402921 0,4.44402921 0,0" stroke="none" fill="#FDFDFD"></polygon></g></g><g transform="translate(52.10113539258394 8.006674132337004)"><g clip-path="url(#i5)"><polygon points="0,0 3.86220204,0 3.86220204,4.64391652 0,4.64391652 0,0" stroke="none" fill="#FDFDFD"></polygon></g></g><g transform="translate(0.0 0.16030566280307923)"><g clip-path="url(#i6)"><g transform="translate(0.0 -0.16030566280307923)"><g transform="translate(57.42445243693302 6.2538999315771)"><g clip-path="url(#i7)"><polygon points="0,0 1.26845365,0 1.26845365,6.2964502 0,6.2964502 0,0" stroke="none" fill="#FDFDFD"></polygon></g></g><g transform="translate(60.246562368278255 6.062918493793138)"><g clip-path="url(#i8)"><polygon points="0,0 1.1308384,0 1.1308384,6.48842118 0,6.48842118 0,0" stroke="none" fill="#FDFDFD"></polygon></g></g><g transform="translate(62.701399123752864 8.006674132337004)"><g clip-path="url(#i9)"><polygon points="0,0 3.86120482,0 3.86120482,4.64391652 0,4.64391652 0,0" stroke="none" fill="#FDFDFD"></polygon></g></g><g transform="translate(68.05174061302739 6.062522677341766)"><g clip-path="url(#i10)"><polygon points="0,0 4.48753053,0 4.48753053,6.58836483 0,6.58836483 0,0" stroke="none" fill="#FDFDFD"></polygon></g></g><g transform="translate(73.87146978593591 6.062918493793138)"><g clip-path="url(#i11)"><polygon points="0,0 1.1308384,0 1.1308384,6.48842118 0,6.48842118 0,0" stroke="none" fill="#FDFDFD"></polygon></g></g><g transform="translate(76.35233377434622 8.006278315885632)"><g clip-path="url(#i12)"><polygon points="0,0 4.11948273,0 4.11948273,4.63600019 0,4.63600019 0,0" stroke="none" fill="#FDFDFD"></polygon></g></g><g transform="translate(83.80769005304722 8.00627831588563)"><g clip-path="url(#i13)"><polygon points="0,0 4.54429504,0 4.54429504,4.64490606 0,4.64490606 0,0" stroke="none" fill="#FDFDFD"></polygon></g></g><g transform="translate(89.64636625376345 8.006674132337004)"><g clip-path="url(#i14)"><polygon points="0,0 4.09156079,0 4.09156079,4.54397286 0,4.54397286 0,0" stroke="none" fill="#FDFDFD"></polygon></g></g><g transform="translate(97.20264038583971 6.965973727583884)"><g clip-path="url(#i15)"><polygon points="0,0 2.82310714,0 2.82310714,5.67600791 0,5.67600791 0,0" stroke="none" fill="#FDFDFD"></polygon></g></g><g transform="translate(101.28502682998864 6.062423723228921)"><g clip-path="url(#i16)"><polygon points="0,0 4.05466395,0 4.05466395,6.48842118 0,6.48842118 0,0" stroke="none" fill="#FDFDFD"></polygon></g></g><g transform="translate(106.66219332179084 8.006278315885632)"><g clip-path="url(#i17)"><polygon points="0,0 4.11948273,0 4.11948273,4.63600019 0,4.63600019 0,0" stroke="none" fill="#FDFDFD"></polygon></g></g><g transform="translate(12.109870389202783 11.513967081871067)"><g clip-path="url(#i18)"><polygon points="2.22044605e-16,8.56953397e-16 19.7543435,8.56953397e-16 19.7543435,18.283128 2.22044605e-16,18.283128 2.22044605e-16,8.56953397e-16" stroke="none" fill="#FDFDFD"></polygon></g></g><g transform="translate(21.925685267105486 5.701834936034862)"><g clip-path="url(#i19)"><polygon points="1.55431223e-15,0 4.90607996,0 4.90607996,5.56477781 1.55431223e-15,5.56477781 1.55431223e-15,0" stroke="none" fill="#FDFDFD"></polygon></g></g><g transform="translate(40.3020234071879 17.022086490979284)"><g clip-path="url(#i20)"><polygon points="0,0 10.6601962,0 10.6601962,12.5325384 0,12.5325384 0,0" stroke="none" fill="#FDFDFD"></polygon></g></g><g transform="translate(52.64960198701502 20.33190365729879)"><g clip-path="url(#i21)"><polygon points="0,0 8.76848503,0 8.76848503,12.9016372 0,12.9016372 0,0" stroke="none" fill="#FDFDFD"></polygon></g></g><g transform="translate(63.124217007459606 20.33190365729879)"><g clip-path="url(#i22)"><polygon points="0,0 8.7664906,0 8.7664906,12.9016372 0,12.9016372 0,0" stroke="none" fill="#FDFDFD"></polygon></g></g><g transform="translate(75.76597312429985 16.83555798827325)"><g clip-path="url(#i23)"><polygon points="0,0 7.83609182,0 7.83609182,12.9026268 0,12.9026268 0,0" stroke="none" fill="#FDFDFD"></polygon></g></g><g transform="translate(84.74387266914158 18.26683027641142)"><g clip-path="url(#i24)"><polygon points="0,0 5.54649309,0 5.54649309,11.4717503 0,11.4717503 0,0" stroke="none" fill="#FDFDFD"></polygon></g></g><g transform="translate(91.43456679400661 20.331210978508878)"><g clip-path="url(#i25)"><polygon points="0,0 8.91806683,0 8.91806683,9.42636879 0,9.42636879 0,0" stroke="none" fill="#FDFDFD"></polygon></g></g><g transform="translate(102.05756695854453 20.331210978508878)"><g clip-path="url(#i26)"><polygon points="0,0 4.87038336,0 4.87038336,9.22153378 0,9.22153378 0,0" stroke="none" fill="#FDFDFD"></polygon></g></g><g transform="translate(107.88347884579028 20.31320132997179)"><g clip-path="url(#i27)"><polygon points="0,0 8.09337251,0 8.09337251,9.40855705 0,9.40855705 0,0" stroke="none" fill="#FDFDFD"></polygon></g></g></g></g></g></g></g></g></g></g></svg>