<?xml version="1.0" encoding="UTF-8"?><svg version="1.1" width="129px" height="38px" viewBox="0 0 129.0 38.0" xmlns="http://www.w3.org/2000/svg" xmlns:xlink="http://www.w3.org/1999/xlink"><defs><clipPath id="i0"><path d="M1440,0 L1440,1156 L0,1156 L0,0 L1440,0 Z"></path></clipPath><clipPath id="i1"><path d="M122.895408,0 C125.296695,0 127.243253,1.93158428 127.243253,4.31538886 L127.243253,32.1828461 C127.243253,34.5656612 125.296695,36.498235 122.895408,36.498235 L4.34884149,36.498235 C1.94755502,36.498235 0,34.5656612 0,32.1828461 L0,4.31538886 C0,1.93158428 1.94755502,0 4.34884149,0 L122.895408,0 Z"></path></clipPath><clipPath id="i2"><path d="M128.194593,0 L128.194593,37.4419604 L0,37.4419604 L0,0 L128.194593,0 Z"></path></clipPath><clipPath id="i3"><path d="M123.371079,0 C126.030643,0 128.19559,2.14730425 128.19559,4.78739998 L128.19559,32.6548572 C128.19559,35.294953 126.030643,37.4422572 123.371079,37.4422572 L4.82451161,37.4422572 C2.16494723,37.4422572 0,35.294953 0,32.6548572 L0,4.78739998 C0,2.14730425 2.16494723,0 4.82451161,0 L123.371079,0 Z M123.371079,0.944022237 L4.82451161,0.944022237 C2.68948074,0.944022237 0.951340238,2.66780288 0.951340238,4.78739998 L0.951340238,32.6548572 C0.951340238,34.7744543 2.68948074,36.498235 4.82451161,36.498235 L123.371079,36.498235 C125.507107,36.498235 127.24425,34.7744543 127.24425,32.6548572 L127.24425,4.78739998 C127.24425,2.66780288 125.507107,0.944022237 123.371079,0.944022237 Z"></path></clipPath><clipPath id="i4"><path d="M128.194593,0 L128.194593,37.4422572 L0,37.4422572 L0,0 L128.194593,0 Z"></path></clipPath><clipPath id="i5"><path d="M34.3190506,4.4222593 C35.2813602,4.4222593 36.0442274,4.84677245 36.4411177,5.31680448 L36.5019477,5.31680448 L36.5019477,4.66568642 L38.1812527,4.66568642 L38.1812527,11.8448073 C38.1812527,14.7985876 36.4261596,16.0097859 34.3499642,16.0097859 C32.3964259,16.0097859 31.220713,14.7075498 30.7779509,13.6477512 L32.3196406,13.0114763 C32.5948711,13.6625944 33.2659948,14.435426 34.3499642,14.435426 C35.6782506,14.435426 36.5019477,13.6170755 36.5019477,12.0872449 L36.5019477,11.5123215 L36.4411177,11.5123215 C36.0442274,11.9962071 35.2813602,12.4207202 34.3190506,12.4207202 C32.3046824,12.4207202 30.4578458,10.6791279 30.4578458,8.43682766 C30.4578458,6.17968435 32.3046824,4.4222593 34.3190506,4.4222593 Z M74.1676417,4.65875963 L76.2707618,9.7539069 L76.3315918,9.7539069 L78.3579265,4.65875963 L80.3234314,4.65875963 L75.4630201,15.7426098 L73.6191752,15.7426098 L75.4171484,11.7804871 L72.2629668,4.65875963 L74.1676417,4.65875963 Z M45.8288714,4.4222593 C47.920025,4.4222593 48.9421673,6.07380345 49.2782277,6.96735909 L49.4617147,7.422548 L44.0737783,9.63318289 C44.4856269,10.4366903 45.1268342,10.8453708 46.0273166,10.8453708 C46.927799,10.8453708 47.5540482,10.4060145 48.0117685,9.74005333 L49.3849294,10.6484521 C48.9421673,11.2995701 47.8741532,12.4207202 46.0273166,12.4207202 C43.7377179,12.4207202 42.0274993,10.6632952 42.0274993,8.42198454 C42.0274993,6.04411721 43.7526761,4.4222593 45.8288714,4.4222593 Z M6.35024595,0 C8.25791249,0 9.61611522,0.742155846 10.6392547,1.71190615 L9.43362542,2.90826138 C8.70067461,2.22646754 7.70844868,1.69706304 6.35024595,1.69706304 C3.83128847,1.69706304 1.862792,3.71077923 1.862792,6.21036012 C1.862792,8.70994101 3.83128847,10.7246467 6.35024595,10.7246467 C7.98268198,10.7246467 8.91407798,10.0725391 9.50941354,9.48178309 C9.99804741,8.99789748 10.3181525,8.30027099 10.4408095,7.34635334 L6.35024595,7.34635334 L6.35024595,5.65027984 L12.1051563,5.65027984 C12.1659863,5.95307943 12.1959026,6.31624102 12.1959026,6.71007839 C12.1959026,7.98262828 11.844884,9.55797776 10.7150428,10.6791279 C9.61611522,11.8141315 8.21204074,12.4207202 6.35024595,12.4207202 C2.89989247,12.4207202 0,9.63318289 0,6.21036012 C0,2.78753736 2.89989247,0 6.35024595,0 Z M16.8468994,4.4222593 C19.0756682,4.4222593 20.8915912,6.10447922 20.8915912,8.42198454 C20.8915912,10.7246467 19.0756682,12.4207202 16.8468994,12.4207202 C14.6181306,12.4207202 12.8012103,10.7246467 12.8012103,8.42198454 C12.8012103,6.10447922 14.6181306,4.4222593 16.8468994,4.4222593 Z M25.6712283,4.4222593 C27.8989998,4.4222593 29.7159201,6.10447922 29.7159201,8.42198454 C29.7159201,10.7246467 27.8989998,12.4207202 25.6712283,12.4207202 C23.4424595,12.4207202 21.6255392,10.7246467 21.6255392,8.42198454 C21.6255392,6.10447922 23.4424595,4.4222593 25.6712283,4.4222593 Z M68.5443633,4.40147894 C70.5716953,4.40147894 72.1403098,5.56517931 72.1403098,7.65212155 L72.1403098,12.1584918 L70.4340801,12.1584918 L70.4340801,11.2510826 L70.3732501,11.2510826 C69.9614016,11.8715249 69.3062333,12.4009294 68.1175566,12.4009294 C66.5629031,12.4009294 65.1767784,11.3876393 65.1767784,9.81525845 C65.1767784,8.09147781 66.8989636,7.16823593 68.5902351,7.16823593 C69.4278932,7.16823593 70.113975,7.44035974 70.4340801,7.62243531 L70.4340801,7.50072175 C70.4191219,6.53295053 69.4887231,5.98870291 68.5742797,5.98870291 C67.9201086,5.98870291 67.2948567,6.20046471 66.9597935,6.85158277 L65.3901818,6.20046471 C65.9386484,4.96056968 67.2639431,4.40147894 68.5443633,4.40147894 Z M64.2005079,0.424513144 L64.2005079,12.1772931 L62.4334483,12.1772931 L62.4334483,0.424513144 L64.2005079,0.424513144 Z M57.573037,0.424513144 C59.5325586,0.424513144 61.4581749,1.83164063 61.4581749,4.07493037 C61.4581749,6.31723056 59.5325586,7.72534759 57.573037,7.72534759 L55.1039401,7.72534759 L55.1039401,12.1772931 L53.3368805,12.1772931 L53.3368805,0.424513144 Z M41.1738858,0.423523603 L41.1738858,12.1772931 L39.4028374,12.1772931 L39.4028374,0.423523603 L41.1738858,0.423523603 Z M34.4726213,5.99859832 C33.2510366,5.99859832 32.2278971,7.02772109 32.2278971,8.43682766 C32.2278971,9.83010157 33.2510366,10.8453708 34.4726213,10.8453708 C35.6782506,10.8453708 36.6246048,9.83010157 36.6246048,8.43682766 C36.6246048,7.02772109 35.6782506,5.99859832 34.4726213,5.99859832 Z M16.8468994,5.99859832 C15.6253147,5.99859832 14.5722588,6.9822022 14.5722588,8.42198454 C14.5722588,9.84593423 15.6253147,10.8453708 16.8468994,10.8453708 C18.0674868,10.8453708 19.1215399,9.84593423 19.1215399,8.42198454 C19.1215399,6.9822022 18.0674868,5.99859832 16.8468994,5.99859832 Z M25.6712283,5.99859832 C24.4496436,5.99859832 23.3965877,6.9822022 23.3965877,8.42198454 C23.3965877,9.84593423 24.4496436,10.8453708 25.6712283,10.8453708 C26.8918157,10.8453708 27.9448716,9.84593423 27.9448716,8.42198454 C27.9448716,6.9822022 26.8918157,5.99859832 25.6712283,5.99859832 Z M68.8185966,8.58921699 C67.950025,8.58921699 66.9448353,8.93753547 66.9448353,9.84494469 C66.9448353,10.5564248 67.7515798,10.8433917 68.33096,10.8433917 C69.352105,10.8433917 70.2964648,10.0715496 70.4340801,8.98305436 C69.9614016,8.75644945 69.5954248,8.58921699 68.8185966,8.58921699 Z M45.8897014,5.96792255 C44.9892189,5.96792255 43.7377179,6.75559728 43.7835896,8.30027099 L47.3855193,6.81595929 C47.1870741,6.31624102 46.5917386,5.96792255 45.8897014,5.96792255 Z M57.6189088,2.06022463 L55.1039401,2.06022463 L55.1039401,6.0896361 L57.6189088,6.0896361 C58.9402147,6.0896361 59.6911153,4.9853082 59.6911153,4.07493037 C59.6911153,3.14575125 58.9402147,2.06022463 57.6189088,2.06022463 Z"></path></clipPath><clipPath id="i6"><path d="M0.507580903,0 L12.2357911,11.6389828 L12.2357911,11.9130856 L0.507580903,23.5520684 L0.437776064,23.4847796 C0.162545554,23.1948441 0,22.7455924 0,22.1647317 L0,1.38733666 C0,0.80647602 0.162545554,0.357224347 0.437776064,0.0682783379 L0.507580903,0 Z"></path></clipPath><clipPath id="i7"><path d="M3.91006821,0 L3.99882008,0.0494770564 L8.63086977,2.66186564 L8.77235076,2.74666961 C9.95135901,3.49770754 9.90419868,4.65571771 8.63086977,5.37419787 L3.99882008,7.98559691 L3.909071,8.0360635 L0,4.1550832 L0,3.87999076 L3.91006821,0 Z"></path></clipPath><linearGradient id="i8" x1="7.77054228px" y1="4.018283px" x2="-15.1365995px" y2="4.018283px" gradientUnits="userSpaceOnUse"><stop stop-color="#FDFDFD" offset="0%"></stop><stop stop-color="#F8F8F8" offset="100%"></stop></linearGradient><clipPath id="i9"><path d="M11.7980151,0 L15.7968351,3.96805992 L1.96749926,11.765644 L1.80643342,11.8502754 C1.06103356,12.2136291 0.40672953,12.1367879 0,11.7082506 L11.7980151,0 Z"></path></clipPath><linearGradient id="i10" x1="13.6238548px" y1="2.15642663px" x2="-7.92134536px" y2="23.5358944px" gradientUnits="userSpaceOnUse"><stop stop-color="#EE4447" offset="0%"></stop><stop stop-color="#C6186C" offset="100%"></stop></linearGradient><clipPath id="i11"><path d="M0.906465699,0 L1.06975455,0.00847106872 C1.3471503,0.0368071379 1.65005344,0.13672718 1.96749926,0.315669201 L15.7968351,8.11226375 L11.7980151,12.0803237 L0,0.373062587 C0.231353182,0.129635469 0.543480534,-0.00098396001 0.906465699,0 Z"></path></clipPath><linearGradient id="i12" x1="-8.01734158px" y1="-11.5500983px" x2="9.57375694px" y2="5.90568411px" gradientUnits="userSpaceOnUse"><stop stop-color="#73C068" offset="0%"></stop><stop stop-color="#279E6F" offset="100%"></stop></linearGradient><clipPath id="i13"><path d="M2.81512945,0 C3.5510719,0 4.21421787,0.28102968 4.69986011,0.730281353 L4.15737679,1.22802054 C3.80236932,0.915325544 3.33268247,0.714448695 2.81512945,0.714448695 C1.64938863,0.714448695 0.75189784,1.66935588 0.75189784,2.84196212 C0.75189784,4.01357882 1.64938863,4.96056968 2.81512945,4.96056968 C3.81832471,4.96056968 4.54628946,4.38267766 4.59415564,3.46735211 L3.00958579,3.46735211 L3.00958579,2.81722359 L5.45175795,2.81722359 C5.45175795,4.76068237 4.40867421,5.67600791 2.81512945,5.67600791 C1.22856517,5.67600791 0,4.40741619 0,2.84196212 C0,1.26859173 1.22856517,0 2.81512945,0 Z"></path></clipPath><clipPath id="i14"><path d="M3.30077169,0 L3.30077169,0.698616037 L0.75189784,0.698616037 L0.75189784,2.46494695 L2.97667779,2.46494695 L2.97667779,3.16356299 L0.75189784,3.16356299 L0.75189784,4.83291887 L3.38154586,4.83291887 L3.38154586,5.53153491 L0,5.53153491 L0,0 L3.30077169,0 Z"></path></clipPath><clipPath id="i15"><path d="M4.14241861,0 L4.14241861,0.706532366 L2.45114707,0.706532366 L2.45114707,5.53153491 L1.69127153,5.53153491 L1.69127153,0.706532366 L0,0.706532366 L0,0 L4.14241861,0 Z"></path></clipPath><clipPath id="i16"><path d="M0.874554915,0 L0.874554915,5.53153491 L0.122657075,5.53153491 L0.122657075,0 L0.874554915,0 Z"></path></clipPath><clipPath id="i17"><path d="M4.14241861,0 L4.14241861,0.706532366 L2.45214428,0.706532366 L2.45214428,5.53153491 L1.69127153,5.53153491 L1.69127153,0.706532366 L0,0.706532366 L0,0 L4.14241861,0 Z"></path></clipPath><clipPath id="i18"><path d="M2.81612666,0 C4.40967142,0 5.6472115,1.26760219 5.6472115,2.84196212 C5.6472115,4.40741619 4.40967142,5.67501837 2.81612666,5.67501837 C1.2305596,5.67501837 0,4.40741619 0,2.84196212 C0,1.26760219 1.2305596,0 2.81612666,0 Z M2.81612666,0.722365024 C1.65138306,0.722365024 0.752895052,1.66935588 0.752895052,2.84196212 C0.752895052,4.01357882 1.65138306,4.95265335 2.81612666,4.95265335 C3.98884796,4.95265335 4.88733596,4.01357882 4.88733596,2.84196212 C4.88733596,1.66935588 3.98884796,0.722365024 2.81612666,0.722365024 Z"></path></clipPath><clipPath id="i19"><path d="M0.744917356,0 L3.26088321,4.13430283 L3.26088321,0 L4.01278105,0 L4.01278105,5.53153491 L3.29279399,5.53153491 L0.752895052,1.36556676 L0.752895052,5.53153491 L0,5.53153491 L0,0 L0.744917356,0 Z"></path></clipPath></defs><g transform="translate(-726.0 -1025.0)"><g clip-path="url(#i0)"><g transform="translate(0.0 932.0)"><g transform="translate(584.0 92.95417264319191)"><g transform="translate(142.8590604026847 0.0)"><g transform="translate(0.47537095557326126 0.6327125975079753)"><g clip-path="url(#i1)"><polygon points="0,0 127.243253,0 127.243253,36.498235 0,36.498235 0,0" stroke="none" fill="#000000"></polygon></g></g><g transform="translate(0.0 0.16030566280308278)"><g clip-path="url(#i2)"><g transform="translate(0.0 -0.16030566280308278)"><g transform="translate(-0.00019944239797098362 0.16000880046455634)"><g clip-path="url(#i3)"><polygon points="0.000199442398,0.000296862339 128.194792,0.000296862339 128.194792,37.4422572 0.000199442398,37.4422572 0.000199442398,0.000296862339" stroke="none" fill="#A6A8AA"></polygon></g></g></g></g></g><g transform="translate(0.0 0.16030566280308278)"><g clip-path="url(#i4)"><g transform="translate(0.0 -0.16030566280308278)"><g transform="translate(38.99697207603897 16.213631389064965)"><g clip-path="url(#i5)"><polygon points="0,0 80.3234314,0 80.3234314,16.0097859 0,16.0097859 0,0" stroke="none" fill="#FDFDFD"></polygon></g></g><g transform="translate(9.56007190453052 7.213655872025921)"><g clip-path="url(#i6)"><polygon points="0,0 12.2357911,0 12.2357911,23.5520684 0,23.5520684 0,0" stroke="none" fill="#5AC7F2"></polygon></g></g></g></g></g><g transform="translate(20.94145178736816 14.843116926211419)"><g transform="translate(0.8546106753225944 0.12864034669383173)"><g clip-path="url(#i7)"><g transform="translate(-0.8546106753225944 -0.12864034669383173)"><g transform="translate(0.8546106753225944 0.12864034669383173)"><g clip-path="url(#i7)"><polygon points="0,0 9.6225971,0 9.6225971,8.0360635 0,8.0360635 0,0" stroke="none" fill="url(#i8)"></polygon></g></g></g></g></g></g><g transform="translate(9.972119898746701 18.80128143986782)"><g transform="translate(0.025927511736741238 0.18801281439867967)"><g clip-path="url(#i9)"><g transform="translate(-0.025927511736741238 -0.18801281439867967)"><g transform="translate(0.025927511736741238 0.18801281439867967)"><g clip-path="url(#i9)"><polygon points="0,0 15.7968351,0 15.7968351,12.0818643 0,12.0818643 0,0" stroke="none" fill="url(#i10)"></polygon></g></g></g></g></g></g><g transform="translate(9.972119898746701 5.9372467704845455)"><g transform="translate(0.025927511736741238 0.9717238069841487)"><g clip-path="url(#i11)"><g transform="translate(-0.025927511736741238 -0.9717238069841487)"><g transform="translate(0.025927511736741238 0.9717238069841487)"><g clip-path="url(#i11)"><polygon points="0,-5.51856806e-06 15.7968351,-5.51856806e-06 15.7968351,12.0803237 0,12.0803237 0,-5.51856806e-06" stroke="none" fill="url(#i12)"></polygon></g></g></g></g></g></g><g transform="translate(0.0 0.16030566280307923)"><g transform="translate(39.391169975636444 6.5579859203387)"><g clip-path="url(#i13)"><polygon points="0,0 5.45175795,0 5.45175795,5.67600791 0,5.67600791 0,0" stroke="none" fill="#FDFDFD"></polygon></g></g><g transform="translate(45.87165181303604 6.622009231347111)"><g clip-path="url(#i14)"><polygon points="0,0 3.38154586,0 3.38154586,5.53153491 0,5.53153491 0,0" stroke="none" fill="#FDFDFD"></polygon></g></g><g transform="translate(49.90896427524264 6.622009231347111)"><g clip-path="url(#i15)"><polygon points="0,0 4.14241861,0 4.14241861,5.53153491 0,5.53153491 0,0" stroke="none" fill="#FDFDFD"></polygon></g></g><g transform="translate(56.7862367634133 6.622009231347111)"><g clip-path="url(#i16)"><polygon points="0.122657075,0 0.874554915,0 0.874554915,5.53153491 0.122657075,5.53153491 0.122657075,0" stroke="none" fill="#FDFDFD"></polygon></g></g><g transform="translate(58.647233778917354 6.622009231347111)"><g clip-path="url(#i17)"><polygon points="0,0 4.14241861,0 4.14241861,5.53153491 0,5.53153491 0,0" stroke="none" fill="#FDFDFD"></polygon></g></g><g transform="translate(65.28198431115055 6.558084874451543)"><g clip-path="url(#i18)"><polygon points="0,0 5.6472115,0 5.6472115,5.67501837 0,5.67501837 0,0" stroke="none" fill="#FDFDFD"></polygon></g></g><g transform="translate(72.08715837245323 6.621811323121427)"><g clip-path="url(#i19)"><polygon points="0,0 4.01278105,0 4.01278105,5.53153491 0,5.53153491 0,0" stroke="none" fill="#FDFDFD"></polygon></g></g></g></g></g></g></g></g></svg>