<?xml version="1.0" encoding="UTF-8"?><svg version="1.1" width="13px" height="20px" viewBox="0 0 13.0 20.0" xmlns="http://www.w3.org/2000/svg" xmlns:xlink="http://www.w3.org/1999/xlink"><defs><clipPath id="i0"><path d="M1440,0 L1440,1156 L0,1156 L0,0 L1440,0 Z"></path></clipPath><clipPath id="i1"><path d="M2.60623446,0 C3.0685359,0 3.45341241,0.162538386 3.76162835,0.487750046 L12.1309389,8.84460611 C12.4477427,9.16127495 12.6062345,9.54642123 12.6062345,10 C12.6062345,10.444991 12.4477427,10.8344087 12.1309389,11.1681632 L3.7614485,19.5250192 C3.44486959,19.8416881 3.05967834,20 2.60605461,20 C2.15261073,20 1.76732956,19.8416881 1.45066072,19.5250192 L0.474980779,18.5622434 C0.158311939,18.2287138 0,17.8390713 0,17.3941252 C0,16.9405015 0.158356901,16.55558 0.474980779,16.2389112 L6.71389197,10.000045 L0.475250552,3.77399296 C0.158491788,3.4403284 0.000179848837,3.05082079 0.000179848837,2.6058298 C0.000179848837,2.15225103 0.15853675,1.76732956 0.475250552,1.45066072 L1.45084057,0.487750046 C1.75905651,0.162718235 2.14393302,0 2.60623446,0 Z"></path></clipPath></defs><g transform="translate(-596.0 -846.0)"><g clip-path="url(#i0)"><g transform="translate(590.0 840.0)"><g transform="translate(0.0 4.0)"><g transform="translate(18.60623446949744 22.0) rotate(-180.0)"><g clip-path="url(#i1)"><polygon points="0,0 12.6062345,0 12.6062345,20 0,20 0,0" stroke="none" fill="#FFFFFF"></polygon></g></g></g></g></g></g></svg>