<?xml version="1.0" encoding="UTF-8"?><svg version="1.1" width="249px" height="45px" viewBox="0 0 249.0 45.0" xmlns="http://www.w3.org/2000/svg" xmlns:xlink="http://www.w3.org/1999/xlink"><defs><clipPath id="i0"><path d="M1440,0 L1440,1156 L0,1156 L0,0 L1440,0 Z"></path></clipPath><clipPath id="i1"><path d="M21.8209642,43.5609277 C21.962707,44.0904133 21.2365858,45.2668926 20.7633992,44.9675269 C19.7630287,44.334872 20.4397709,43.1150266 20.6490103,42.9744366 C20.8863141,42.8146117 21.5825947,42.6708742 21.8209642,43.5609277 Z M22.2014318,43.6658456 C22.5634266,43.6361188 23.463618,44.268424 23.2852849,44.8122484 C23.0451391,45.5449251 21.3747762,43.7333427 22.2014318,43.6658456 Z M26.7518418,37.9707479 L26.8661565,37.9750989 C27.5503588,38.0474923 28.0228349,38.4853496 28.5713335,38.8245841 C28.8004666,38.9662233 29.0644138,39.0868789 29.3411498,39.1900481 C29.7837853,39.355119 30.2598139,39.4750751 30.680069,39.564605 C31.8914551,39.8216539 32.489688,41.1366248 32.3237885,42.2627436 C32.1728093,43.2842941 30.5916129,43.8519 29.6956845,44.0515937 C27.9713243,44.4359429 26.8732614,43.758523 26.4075349,42.1392902 C26.1332857,41.186286 26.1283122,40.0465279 26.2085976,39.070092 C26.2483851,38.5881691 26.2146368,37.9062028 26.8661565,37.9750989 Z M22.3730152,42.1539787 C22.8454913,42.1151591 24.019932,42.9401634 23.7872464,43.6497581 C23.4739201,44.6062596 21.2944908,42.2421097 22.3730152,42.1539787 Z M3.77877102,41.0761222 C3.89529145,41.0414993 4.1723827,41.0442971 4.2171436,41.3079907 C4.25302336,41.5174768 3.94857823,41.5716844 3.8508858,41.6339356 C3.72086606,41.7168208 3.68214433,41.7839682 3.65763241,41.9703724 C3.61571348,42.2854758 3.42388107,42.6656283 3.1293828,42.6820654 C2.99829732,42.6894097 2.85868596,42.6173661 2.74003406,42.5047542 C2.96881197,42.8733657 2.84767336,43.3650809 2.4156952,43.2573652 C1.7421503,43.0891469 1.57909275,41.9612795 2.28887266,42.1655196 C2.41747142,42.2025906 2.52191351,42.2658911 2.60610662,42.3428309 C2.49384914,42.1767109 2.42635255,41.9766674 2.46010084,41.8014546 C2.51232189,41.5307664 2.71658788,41.6269411 2.92369583,41.710176 C3.10416039,41.7825693 3.28640118,41.8448206 3.37201527,41.6461761 C3.47183917,41.4143075 3.54217772,41.1460674 3.77877102,41.0761222 Z M14.6009608,12.890629 C15.2042317,13.3867317 15.5139116,14.3313165 15.8042806,15.3115265 L15.9127995,15.6799689 C16.3837683,17.2768004 16.8942784,18.83143 18.6212707,18.5722828 C18.8109716,18.5439549 18.966569,18.5128293 19.0976545,18.483802 C20.4173904,18.1896822 21.4785078,20.6832308 22.9094355,19.2357136 C23.4440795,18.694687 23.4685914,16.4018812 24.6345062,16.7795857 C25.1169291,16.9359133 24.8007609,17.6755845 25.481766,17.5255519 C25.9705834,17.4181859 26.032396,16.593881 26.1286675,16.2392585 C26.3059348,15.5866692 26.1201416,13.2183226 26.8853397,12.986454 C28.3919346,12.5300612 27.1734436,15.3177297 27.2206912,15.837423 C27.9787845,15.9825594 28.5986873,15.5006365 29.3184141,15.4205492 C30.0068793,15.3439591 30.8115097,15.5030846 31.4680028,15.6961335 C32.7387149,16.069991 33.9589821,16.8425364 34.5493997,18.0483927 C35.248167,19.4759756 34.7000236,20.7140067 33.7937931,21.8904861 C33.0889866,22.8060696 31.3397593,24.1280351 31.6445597,25.4171263 C31.8658774,25.4230716 32.0445658,25.5727545 32.2736989,25.56576 C32.6381805,26.1844258 31.7976703,26.2277919 31.9227167,26.9244467 C32.0253825,27.4969487 32.9166927,27.9715273 33.1667853,28.518849 C33.5437005,29.3452523 33.3021338,29.5886618 34.3650274,29.8317216 C34.8907903,29.9520274 36.004484,29.6575579 36.317455,30.2076774 C36.7298947,30.93266 35.6368052,31.1708237 35.7373396,31.8443965 C36.894018,32.3417074 37.9128612,33.8339896 38.1633091,35.0188623 C38.5114494,36.666423 37.5284859,37.0853952 36.3107054,37.8103778 C35.4815631,38.3038416 35.8151383,38.0394485 35.7643382,38.9994473 C35.6939997,40.332604 34.8893693,40.9544174 33.6623524,39.7359709 C32.8740633,38.9529337 32.6161553,36.9888707 31.5092112,36.537374 C30.3961688,36.0832155 30.6596972,36.7534585 30.9080571,37.4834399 L30.9743699,37.683207 C31.1020608,38.0825037 31.1875959,38.4707777 31.0051183,38.675251 C30.2999566,39.4663319 29.7631811,37.4032964 29.4828926,37.0598651 C28.8679632,36.3069044 28.0732797,36.2338116 27.2079024,35.7938559 C26.6416415,35.5060311 25.8629441,34.532393 25.4451757,35.6920855 C25.0039612,36.9175265 26.1922564,36.7545541 24.7151468,37.2025535 C23.8732157,37.4578537 23.8590059,37.4746405 23.5311146,38.202421 C23.3833326,38.5301146 23.5609552,38.8326278 23.3350192,39.2148787 C23.1456735,39.535228 22.7012618,39.6901568 22.4582741,39.9730854 C22.0667939,40.4291285 21.9115517,40.9844939 21.5793974,41.4783074 C20.9300092,42.4432023 19.987899,43.0195513 18.7903674,42.6712239 C17.0134309,42.1539787 17.9079383,40.303227 18.3839669,39.1680154 C18.6283756,38.5846719 19.0568013,37.8299625 18.5196706,37.2497665 C17.9651328,36.6506853 17.4500273,36.9287178 17.1139653,37.5120613 C16.6841186,38.2583772 17.1711598,39.1428351 16.3988567,39.8150091 C15.7373902,40.3910083 14.4663228,40.420735 14.0229768,39.5747471 C13.4094684,38.4035136 14.7530057,37.1270126 15.4350765,36.3177459 C15.7491132,35.9449376 16.3569378,35.5539436 16.121055,34.9957804 C16.0034688,34.717748 14.9601137,34.3001748 14.8332911,34.6743819 C14.8816045,34.53196 14.9429999,34.3791209 15.0052686,34.2220928 L15.0978007,33.9841873 C15.323138,33.385462 15.4749147,32.7716209 14.9093136,32.4711061 C14.6585105,32.3382101 14.0656062,32.6302316 13.7185317,32.5043301 C13.3643522,32.3759805 13.2737647,31.8636315 12.8769558,31.7685059 C12.1987927,31.6058832 11.2563272,32.2874998 10.5152857,32.3203741 C9.65097416,32.3581445 8.12874848,32.2976419 7.48184698,31.6544952 C5.47719832,29.6603557 10.5138647,27.9281612 11.7469208,27.3934297 C12.3547454,27.1300858 13.6592057,26.6296274 13.0794456,25.904295 C12.936343,25.7253196 12.6986016,25.6638659 12.46698,25.6238663 L12.3145779,25.599324 C11.8667259,25.5289069 11.5329162,25.4589125 12.1192178,24.6207994 C12.493291,24.0860679 14.2954499,24.0049314 14.3341716,23.4467682 C14.3817745,22.7606052 13.2172807,22.8837088 13.2623969,22.0485624 C13.307513,21.2113176 14.6151706,21.1798422 14.01303,20.2481713 C13.7760814,19.8813084 11.8815588,19.3381834 12.8332607,18.4680643 C13.4282964,17.9242399 14.1885211,19.2448065 14.9096688,19.2133311 C15.5469787,19.185353 14.2432288,16.8505801 14.1370105,16.6893563 L14.0149353,16.5059292 L13.7700959,16.1411139 C13.2443904,15.3510397 12.7747784,14.5520913 12.8492467,13.525732 C12.9373475,12.3156789 13.6602715,12.1170344 14.6009608,12.890629 Z M10.9501059,41.8717495 C10.438908,40.8830732 10.8261253,39.2148787 11.8684147,39.9604952 C13.382825,41.0439473 12.6556381,43.0150049 11.7099753,42.681366 C11.4595275,42.5928852 11.1938041,42.3428309 10.9501059,41.8717495 Z M8.45379784,42.5285356 C8.07688268,42.1819568 8.49713775,41.8797932 8.76321641,42.0266783 C8.68683869,41.9843614 8.89714385,42.9359667 8.45379784,42.5285356 Z M10.3923741,38.9306185 L10.4815374,38.9497862 C10.3742534,39.4187691 10.0452963,39.7989217 9.77530998,40.1070305 C9.53658521,40.3798171 8.69891703,42.0459132 8.17386462,41.7014328 C7.80085716,41.4569741 8.62396029,40.8211717 8.73231008,40.7246472 C9.08009513,40.4154892 9.36251506,40.1199704 9.60656851,39.6954027 C9.76642885,39.4170205 10.089702,38.8116443 10.4815374,38.9497862 Z M4.29441806,38.8131818 L4.36599134,38.8151415 C4.7830492,38.8623546 5.36138838,39.490463 5.67542514,39.9370635 C5.851982,40.1885168 6.11699492,40.6616965 6.01290808,40.8760787 C5.83990367,41.2321001 4.91235845,40.9400786 4.50737893,40.7337401 C4.27646955,40.6162321 3.83347878,40.4004509 3.84342565,40.059118 C3.84413614,40.0293913 3.84839908,40.0021126 3.85514874,39.9765826 C3.9137642,39.7548561 4.16776452,39.6768672 4.15497569,39.3872938 C4.14147637,39.0875783 4.04627066,38.7794694 4.36599134,38.8151415 Z M6.68467675,39.9118833 C6.01113185,39.7433152 5.84807431,38.6157975 6.55749897,38.8200377 C7.28930408,39.0305729 7.2910803,40.0633147 6.68467675,39.9118833 Z M6.18733347,35.1468622 C6.56957731,34.393202 8.70673242,33.9647872 9.95080111,34.5761088 C11.1948698,35.1874304 11.0751522,36.6069695 10.6929083,37.3606298 C10.3110197,38.11429 8.99270481,38.2296997 7.74828088,37.6187278 C6.50421219,37.0074062 5.80544488,35.9008721 6.18733347,35.1468622 Z M41.3793439,31.9283309 C41.534586,31.9723964 41.6525274,32.0794126 41.811322,32.1133361 C42.0301531,32.1595 42.0667433,32.1021448 42.3697675,31.9668008 C42.9914466,31.6887683 43.1186243,32.3364615 43.270314,32.6155431 C43.5243144,33.0824277 44.1918201,33.3268864 44.8287747,33.3650066 C45.4351783,33.4003289 47.177656,33.2730286 46.6231182,34.3218578 C46.1016183,35.308086 45.0792226,34.592546 44.7296613,34.4652456 C43.6884376,34.0868417 43.9680156,35.429441 43.0383389,35.6966319 C42.5630209,35.8333749 42.5203914,35.4490257 42.0294426,36.0267736 C41.8805948,36.2019865 41.7818367,36.4321064 41.5541245,36.5384232 C41.3036766,36.6552318 41.039019,36.4800189 40.9040258,36.4065764 C40.3803944,36.1222489 40.4670742,35.6235391 40.7967417,34.9104472 C40.908644,34.6684366 41.2450612,34.2260328 41.144882,34.0466232 C41.0397294,33.857771 40.8081096,34.0920876 40.5772002,34.15294 C40.3498433,34.2127432 40.0471744,34.1588853 40.0287016,33.9626889 C39.9889141,33.5384708 40.8482523,33.2083292 41.0773854,32.8662968 C41.3640683,32.4382318 40.7075752,32.5907125 40.4805735,32.6074994 C40.1349199,32.6326797 39.5203457,32.5032809 40.2397173,32.0762651 C40.6770241,31.8167682 41.070991,31.841249 41.3793439,31.9283309 Z M12.1135339,33.9431042 C12.5682477,33.8812026 13.3504977,34.2676502 13.4055607,34.6586442 C13.4602684,35.049988 12.767185,35.2982937 12.3124712,35.3601952 C11.8577573,35.4220968 11.4442519,35.1552556 11.3895442,34.7639118 C11.3344812,34.3725681 11.65882,34.0050057 12.1135339,33.9431042 Z M49.0966906,30.8158514 C49.5286687,31.1120696 49.8100229,31.9360248 49.0032611,31.8559375 C47.9158555,31.7482218 48.1105299,30.1398305 49.0966906,30.8158514 Z M36.8240347,28.1775161 C37.6638343,28.3513301 38.5594075,28.2992209 39.4116407,28.370565 C41.2443507,28.5230457 42.9349626,29.1840284 44.3996385,30.2804205 C44.9651889,30.703939 46.5115712,32.2738605 44.7804614,31.6740798 C43.1722664,31.1166161 41.7914283,30.1919397 40.1086318,29.7841588 C39.1665215,29.5557875 35.6897367,29.0231543 35.5224163,27.8473745 C35.9394741,27.758544 36.3988062,28.0893851 36.8240347,28.1775161 Z M47.6511978,30.8508241 C47.9822864,31.0777965 48.1979202,31.7094022 47.5794383,31.6482001 C46.7460331,31.5653149 46.8955913,30.3328794 47.6511978,30.8508241 Z M46.9360893,29.7998965 C47.2735722,29.9352406 47.9851283,30.3633056 47.4202885,30.5993709 C47.0845817,30.7399608 45.459335,30.390934 45.3175921,30.0621912 C45.0177652,29.3669353 46.6383938,29.6802901 46.9360893,29.7998965 Z M42.8855835,26.824425 C43.3488232,26.9003156 43.6681887,27.4598777 43.2777742,27.8994837 C42.9143584,28.3086635 40.8812901,28.0071994 40.7146801,27.529823 C40.4876784,26.879332 42.4454347,26.7523814 42.8855835,26.824425 Z M6.7329901,20.9542687 C7.4875309,20.7426843 11.4140561,22.1083656 10.7113811,23.2792493 C10.4378423,23.7317951 9.41580184,23.4306808 8.98098172,23.7157077 C8.38026208,24.1094996 8.19127164,25.0729956 7.8576964,25.6657817 C7.16638924,26.89472 5.60970478,27.4686209 4.63420146,26.056426 C3.54004625,24.4728652 4.95960606,21.4519293 6.7329901,20.9542687 Z M36.950502,22.9249765 C37.838615,22.0300269 38.5409347,20.2576139 40.1136052,20.6709904 C41.3768571,21.0028807 41.9392103,22.4549444 41.4919566,23.6100904 C41.2241017,24.3007999 40.8056229,24.538264 40.1430906,24.7029851 C39.8027657,24.7876189 39.459954,24.708231 39.1505355,24.9394001 C38.8510638,25.163225 38.9228233,25.4388093 38.7370301,25.6535413 C38.3725485,26.0746117 38.2155301,26.1043385 37.7078847,26.0165572 C37.2894059,25.9445136 36.8570725,25.7864373 36.4240286,25.7430712 C36.246406,25.7252352 36.0687834,25.7269838 35.8922265,25.7616067 C35.261311,25.8850601 34.9018029,26.2239449 34.2154692,26.2445787 C32.6271679,26.2924912 34.7515342,24.7722309 35.0183233,24.5770837 C35.6868948,24.088516 36.3678998,23.5118173 36.950502,22.9249765 Z M4.63917489,15.4153033 C5.56103619,15.4306913 5.98519895,15.9031715 6.3479043,16.6697716 C6.47117439,16.9303177 6.54009195,17.4646995 6.84844479,17.5762622 C7.1731389,17.69412 7.20013753,17.38741 7.4097322,17.2321315 C7.61612966,17.0793011 8.03176654,16.9918695 8.26125494,17.1544923 C8.75682199,17.506317 8.08682955,18.1746439 8.17670659,18.5740314 C8.28931931,19.0734406 8.90673547,18.649922 9.15860431,18.5345123 C9.54155864,18.3592994 10.4076464,18.1994745 10.0055089,18.8905337 C9.76145542,19.3098556 9.26837508,19.4633854 8.81010877,19.5242378 C8.57990989,19.554664 8.32662006,19.513746 8.10246034,19.554664 C7.79375226,19.6116694 7.81151452,19.6777677 7.59517019,19.9299203 C7.15146894,20.4475153 6.31557699,19.9400624 5.84061416,19.7644998 C5.04593065,19.47038 3.99582584,19.5536148 3.19972135,19.8029697 C2.44269383,20.0407836 0.510870439,20.9241923 0.059353791,19.7651992 C-0.364808976,18.675452 1.60467041,18.845419 2.15387948,18.8010038 C3.78907313,18.6688072 2.0377143,17.6241747 2.85797547,16.9792794 C3.27752005,16.6498372 3.73436537,16.9652903 3.70559051,16.2445044 C3.69706463,16.0262752 3.57095258,15.7821662 3.7283262,15.5887675 C3.90204111,15.3757842 4.40116061,15.4111066 4.63917489,15.4153033 Z M36.6766079,17.4702951 C37.3661388,16.9666892 39.110748,17.3867106 38.8968904,18.4344906 C38.5856956,19.9564995 36.3980957,19.1857027 36.2709179,18.2299007 C36.2371696,17.9766988 36.3480061,17.7102074 36.6766079,17.4702951 Z M20.6220116,9.195071 C24.9336226,8.48512657 21.597515,17.2461206 22.1421058,17.2566124 C21.3815259,17.2419239 21.4603903,16.5865367 21.4461805,16.0007452 C21.4429833,15.8681989 21.4351679,15.7391499 21.4113665,15.6219915 C21.1051451,14.0968351 17.1914088,9.76092818 20.6220116,9.195071 Z M38.7903168,14.9061018 C38.999201,14.7298397 39.1317075,14.5074138 39.4276267,14.6892715 C39.8137783,14.9267356 39.9320749,15.5744288 39.9178651,15.9860566 C39.9096945,16.2172257 39.8262118,16.619411 39.5619094,16.6879574 C39.1235368,16.8016184 38.4038101,16.1675646 38.1476783,15.8458164 C38.0016725,15.6629095 37.7146344,15.3166805 37.9775158,15.1288774 C38.0006068,15.1124403 38.0251187,15.098801 38.0506963,15.0879595 C38.1146405,15.0605809 38.1859795,15.0479051 38.2599658,15.0397931 L38.4851188,15.0190093 C38.5969185,15.0053241 38.7039923,14.9790947 38.7903168,14.9061018 Z M8.59198822,12.8392192 C8.81650319,12.879088 8.9006963,13.3242896 8.97636353,13.4865626 C9.07725316,13.7019941 9.15327564,13.7841797 9.35754163,13.8981905 C9.70283996,14.0908897 10.1312657,14.5196542 10.1738951,14.9351291 C10.1930783,15.1201343 10.1266475,15.2824073 10.01439,15.3988662 C10.3948576,15.2390412 10.938738,15.6177948 10.8580973,16.1703624 C10.7323405,17.0320881 9.52308589,16.7753889 9.68472245,15.8793901 C9.71420781,15.7167674 9.773889,15.5989096 9.85026672,15.5149753 C9.67939378,15.5999588 9.46837813,15.6076528 9.27547999,15.485948 C8.97742926,15.2977953 9.06446434,15.0557846 9.1372896,14.8043314 C9.20052325,14.585053 9.25274429,14.3587801 9.03000555,14.1552394 C8.77032131,13.9177752 8.47333633,13.7054913 8.37742012,13.3473716 C8.33017251,13.1711095 8.30992353,12.7885089 8.59198822,12.8392192 Z M40.9555363,16.4819686 C40.4002881,16.0462096 41.0720568,15.3257734 41.6368966,15.8000022 C42.2191435,16.2892694 41.4553663,16.8743615 40.9555363,16.4819686 Z M36.3610636,8.33829523 L36.5203,8.34663495 C38.560118,8.56836144 35.9767749,10.3271351 35.9138965,10.9178228 C35.856702,11.4546527 36.4737629,11.7917889 36.1895667,12.3702362 C35.8829901,12.9934485 34.6421187,13.1459292 34.0719501,13.4113715 C33.6886405,13.5897319 32.249187,15.0522874 32.104247,14.1111739 C32.0338729,13.6553406 32.8171388,12.8147909 33.4252728,12.2017808 L33.7819679,11.845072 C33.8860761,11.7406336 33.9720196,11.6526678 34.0296759,11.587199 C34.2914549,11.2895699 34.4799883,10.7913367 34.6797869,10.2733207 L34.8016939,9.96158379 C35.1547586,9.07980021 35.5892269,8.24535903 36.5203,8.34663495 Z M24.8185232,4.6797545 C26.1432325,4.29785336 25.9897666,6.66305245 25.9027315,7.09146719 C25.6561914,8.30326889 24.9861989,9.27970477 25.1528089,10.5894298 C25.3219056,11.9152423 25.8540629,13.2634373 23.8572297,13.9041359 C24.0121166,11.9841384 24.9652394,10.2781734 24.5218934,8.21338922 C24.3304163,7.32298602 23.3510053,5.10292335 24.8185232,4.6797545 Z M17.372939,12.134171 C17.3480719,12.2702145 18.8411675,12.5748261 18.4180704,13.2323116 C18.058207,13.7918737 17.285904,12.6087496 17.372939,12.134171 Z M28.8725814,9.74763858 C31.0388666,8.0881872 31.4111636,11.9173407 29.9191337,12.573777 C29.3386631,12.8290772 28.8892779,12.7458423 28.586609,12.4804 C27.9244319,11.8988052 27.9649299,10.4428945 28.8725814,9.74763858 Z M15.8485819,10.5058452 C16.1089766,10.0693868 17.3455852,10.6027194 17.1136101,11.2546093 C16.9274616,11.7771004 15.4823241,11.1196149 15.8485819,10.5058452 Z M37.8457199,9.91515749 C38.2869344,9.6189393 38.2151749,9.58921256 38.7523056,9.73819597 C39.1764684,9.85605374 40.3548167,10.1473758 39.7334928,10.7226756 C39.4766506,10.95979 38.6819671,10.8415825 38.3395107,10.9737791 C37.9437675,11.1269592 37.6613476,11.495221 37.1920687,11.4333194 C35.9217119,11.2654508 37.4247543,10.1973866 37.8457199,9.91515749 Z M25.7375425,2.13514581 C25.4771478,2.17116762 27.8633298,3.69842246 26.0291988,3.58930784 C24.4678962,3.49663037 24.8309568,2.26034783 25.7375425,2.13514581 Z M25.2186764,0.000182002819 L25.3524567,0.00251472426 C26.530805,0.0556731246 28.0690167,1.44303743 26.6096695,1.50983516 C25.439847,1.56369301 23.6955931,-0.0726764342 25.3524567,0.00251472426 Z"></path></clipPath><linearGradient id="i2" x1="24.7584867px" y1="-0.806052523px" x2="24.7584867px" y2="42.0007986px" gradientUnits="userSpaceOnUse"><stop stop-color="#E14120" offset="0%"></stop><stop stop-color="#C02020" offset="100%"></stop></linearGradient><clipPath id="i3"><path d="M5.70507812,0 C6.52565104,0.0119791667 7.20846354,0.1078125 7.75351562,0.2875 C8.68190104,0.59296875 9.43359375,1.15299479 10.0085937,1.96757812 C10.4697917,2.62643229 10.7842448,3.33919271 10.9519531,4.10585937 C11.1196615,4.87252604 11.2035156,5.60325521 11.2035156,6.29804688 C11.2035156,8.05898437 10.8501302,9.55039063 10.1433594,10.7722656 C9.18502604,12.419401 7.70559896,13.2429688 5.70507812,13.2429688 L0,13.2429688 L0,0 L5.70507812,0 Z M5.23789062,2.3 L2.68632813,2.3 L2.68632813,10.9429687 L5.23789062,10.9429687 C6.54361979,10.9429687 7.45403646,10.2990885 7.96914062,9.01132812 C8.25065104,8.30455729 8.39140625,7.46302083 8.39140625,6.48671875 C8.39140625,5.1390625 8.18177083,4.10286458 7.7625,3.378125 C7.33723958,2.659375 6.49570312,2.3 5.23789062,2.3 Z"></path></clipPath><clipPath id="i4"><path d="M5.34570312,0 C5.39361979,0 5.43404948,0.00149739583 5.46699219,0.0044921875 C5.4999349,0.00748697917 5.57330729,0.0119791667 5.68710937,0.01796875 L5.68710937,2.64140625 C5.52539062,2.6234375 5.38164062,2.61145833 5.25585937,2.60546875 C5.13007812,2.59947917 5.02825521,2.59648437 4.95039062,2.59648437 C3.92018229,2.59648437 3.22838542,2.93190104 2.875,3.60273437 C2.67734375,3.98007813 2.57851562,4.56106771 2.57851562,5.34570313 L2.57851562,10.0265625 L0,10.0265625 L0,0.23359375 L2.44375,0.23359375 L2.44375,1.940625 C2.8390625,1.28776042 3.18346354,0.841536458 3.47695312,0.601953125 C3.95611979,0.200651042 4.57903646,0 5.34570312,0 Z"></path></clipPath><clipPath id="i5"><path d="M4.6359375,0 C5.45052083,0 6.18424479,0.152734375 6.83710938,0.458203125 C7.48997396,0.763671875 8.02903646,1.24583333 8.45429688,1.9046875 C8.83763021,2.48567708 9.08619792,3.15950521 9.2,3.92617187 C9.26588542,4.37539063 9.29283854,5.02226563 9.28085938,5.86679688 L2.57851563,5.86679688 C2.61445312,6.84908854 2.92291667,7.53789063 3.50390625,7.93320312 C3.85729167,8.17877604 4.28255208,8.3015625 4.7796875,8.3015625 C5.30677083,8.3015625 5.73502604,8.15182292 6.06445312,7.85234375 C6.24414062,7.690625 6.40286458,7.46601562 6.540625,7.17851563 L9.15507813,7.17851563 C9.08919271,7.75950521 8.78671875,8.34947917 8.24765625,8.9484375 C7.40911458,9.90078125 6.23515625,10.3769531 4.72578125,10.3769531 C3.47994792,10.3769531 2.38085938,9.97565104 1.42851563,9.17304688 C0.476171875,8.37044271 0,7.06471354 0,5.25585937 C0,3.56080729 0.429752604,2.26106771 1.28925781,1.35664063 C2.14876302,0.452213542 3.26432292,0 4.6359375,0 Z M4.6359375,2.11132812 C4.04296875,2.11132812 3.58326823,2.29700521 3.25683594,2.66835938 C2.93040365,3.03971354 2.72526042,3.54283854 2.64140625,4.17773438 L6.62148437,4.17773438 C6.57955729,3.50091146 6.37441406,2.98730469 6.00605469,2.63691406 C5.63769531,2.28652344 5.18098958,2.11132812 4.6359375,2.11132812 Z"></path></clipPath><clipPath id="i6"><path d="M4.51914063,0 C5.59127604,0 6.54361979,0.212630208 7.37617188,0.637890625 C8.20872396,1.06315104 8.625,1.86575521 8.625,3.04570313 L8.625,7.53789063 C8.625,7.84934896 8.63098958,8.22669271 8.64296875,8.66992188 C8.6609375,9.00533854 8.71184896,9.23294271 8.79570313,9.35273438 C8.87955729,9.47252604 9.00533854,9.57135417 9.17304688,9.64921875 L9.17304688,10.0265625 L6.38789063,10.0265625 C6.31002604,9.82890625 6.25611979,9.64322917 6.22617188,9.46953125 C6.19622396,9.29583333 6.17226563,9.09817708 6.15429688,8.8765625 C5.80091146,9.25989583 5.39361979,9.58632813 4.93242188,9.85585938 C4.38138021,10.1733073 3.75846354,10.3320313 3.06367188,10.3320313 C2.17721354,10.3320313 1.44498698,10.0789714 0.866992188,9.57285156 C0.288997396,9.06673177 0,8.34947917 0,7.42109375 C0,6.2171875 0.464192708,5.34570313 1.39257812,4.80664063 C1.90169271,4.51315104 2.65039062,4.30351563 3.63867188,4.17773438 L4.51015625,4.06992188 C4.98333333,4.01002604 5.32174479,3.93515625 5.52539063,3.8453125 C5.89075521,3.68958333 6.0734375,3.44700521 6.0734375,3.11757813 C6.0734375,2.71627604 5.93417969,2.43925781 5.65566406,2.28652344 C5.37714844,2.13378906 4.96835938,2.05742188 4.42929688,2.05742188 C3.82434896,2.05742188 3.39609375,2.20716146 3.14453125,2.50664063 C2.96484375,2.72825521 2.84505208,3.02773438 2.78515625,3.40507813 L0.314453125,3.40507813 C0.368359375,2.54856771 0.607942708,1.84479167 1.03320313,1.29375 C1.71002604,0.43125 2.87200521,0 4.51914063,0 Z M6.06445312,5.26484375 C5.90273438,5.36666667 5.73951823,5.44902344 5.57480469,5.51191406 C5.41009115,5.57480469 5.18398438,5.63320313 4.89648438,5.68710938 L4.32148438,5.79492188 C3.78242188,5.89075521 3.39609375,6.00755208 3.1625,6.1453125 C2.7671875,6.37890625 2.56953125,6.74127604 2.56953125,7.23242188 C2.56953125,7.66966146 2.69231771,7.98411458 2.93789063,8.17578125 C3.17747396,8.3734375 3.47096354,8.47226563 3.81835938,8.47226563 C4.36940104,8.47226563 4.87701823,8.31054688 5.34121094,7.98710938 C5.80540365,7.66367188 6.04648438,7.07369792 6.06445312,6.2171875 L6.06445312,5.26484375 Z"></path></clipPath><clipPath id="i7"><path d="M9.54140625,0 L9.54140625,13.225 L7.05273438,13.225 L7.05273438,11.8683594 C6.68736979,12.449349 6.27109375,12.8716146 5.80390625,13.1351563 C5.33671875,13.3986979 4.75572917,13.5304688 4.0609375,13.5304688 C2.91692708,13.5304688 1.95410156,13.0677734 1.17246094,12.1423828 C0.390820313,11.2169922 0,10.0295573 0,8.58007813 C0,6.90898438 0.384830729,5.59427083 1.15449219,4.6359375 C1.92415365,3.67760417 2.95286458,3.1984375 4.240625,3.1984375 C4.83359375,3.1984375 5.36067708,3.32871094 5.821875,3.58925781 C6.28307292,3.84980469 6.65742188,4.21067708 6.94492188,4.671875 L6.94492188,0 L9.54140625,0 Z M4.815625,5.43554688 C4.06692708,5.43554688 3.51738281,5.71855469 3.16699219,6.28457031 C2.81660156,6.85058594 2.64140625,7.55286458 2.64140625,8.39140625 C2.64140625,9.29583333 2.82109375,10.0175781 3.18046875,10.5566406 C3.53385417,11.1016927 4.07291667,11.3742188 4.79765625,11.3742188 C5.52239583,11.3742188 6.0734375,11.1046875 6.45078125,10.565625 C6.828125,10.0265625 7.01679688,9.32877604 7.01679688,8.47226563 C7.01679688,7.27434896 6.71432292,6.41783854 6.109375,5.90273438 C5.73802083,5.59127604 5.30677083,5.43554688 4.815625,5.43554688 Z"></path></clipPath><clipPath id="i8"><path d="M4.61796875,0 C4.7796875,0 4.92643229,0.0044921875 5.05820313,0.0134765625 C5.18997396,0.0224609375 5.36966146,0.0359375 5.59726563,0.05390625 L5.59726563,2.13828125 C5.45351563,2.1203125 5.2124349,2.10683594 4.87402344,2.09785156 C4.53561198,2.08886719 4.30201823,2.16373698 4.17324219,2.32246094 C4.04446615,2.4811849 3.98007813,2.65638021 3.98007813,2.84804688 L3.98007813,3.67460938 L5.66015625,3.67460938 L5.66015625,5.48046875 L3.98007813,5.48046875 L3.98007813,13.3777344 L1.42851562,13.3777344 L1.42851562,5.48046875 L0,5.48046875 L0,3.67460938 L1.4015625,3.67460938 L1.4015625,3.04570313 C1.4015625,1.99752604 1.57825521,1.27578125 1.93164062,0.88046875 C2.30299479,0.293489583 3.1984375,0 4.61796875,0 Z"></path></clipPath><clipPath id="i9"><path d="M2.6234375,0 L2.6234375,5.90273438 C2.6234375,6.45976563 2.68932292,6.87903646 2.82109375,7.16054688 C3.0546875,7.65768229 3.51289062,7.90625 4.19570312,7.90625 C5.07018229,7.90625 5.66914062,7.55286458 5.99257812,6.84609375 C6.16028646,6.46276042 6.24414062,5.95664063 6.24414062,5.32773438 L6.24414062,0 L8.840625,0 L8.840625,9.79296875 L6.35195312,9.79296875 L6.35195312,8.409375 C6.32799479,8.43932292 6.26809896,8.52916667 6.17226562,8.67890625 C6.07643229,8.82864583 5.96263021,8.96041667 5.83085937,9.07421875 C5.42955729,9.43359375 5.04173177,9.67916667 4.66738281,9.8109375 C4.29303385,9.94270833 3.85429687,10.0085938 3.35117187,10.0085938 C1.90169271,10.0085938 0.925390625,9.4875 0.422265625,8.4453125 C0.140755208,7.8703125 0,7.02278646 0,5.90273438 L0,0 L2.6234375,0 Z"></path></clipPath><clipPath id="i10"><path d="M2.56054688,0 L2.56054688,13.2429688 L0,13.2429688 L0,0 L2.56054688,0 Z"></path></clipPath><clipPath id="i11"><path d="M5.97460937,0 C8.20273437,0 9.83190104,0.730729167 10.8621094,2.1921875 C11.4311198,3.01276042 11.7365885,3.83632812 11.7785156,4.66289063 L9.01132812,4.66289063 C8.83164062,4.02799479 8.60104167,3.54882812 8.31953125,3.22539063 C7.81640625,2.65039062 7.07070312,2.36289062 6.08242187,2.36289062 C5.07617187,2.36289062 4.28255208,2.7686849 3.7015625,3.58027344 C3.12057292,4.39186198 2.83007812,5.54036458 2.83007812,7.02578125 C2.83007812,8.51119792 3.13704427,9.62376302 3.75097656,10.3634766 C4.36490885,11.1031901 5.14505208,11.4730469 6.09140625,11.4730469 C7.06171875,11.4730469 7.80143229,11.155599 8.31054687,10.5207031 C8.59205729,10.1792969 8.82565104,9.6671875 9.01132812,8.984375 L11.7515625,8.984375 C11.5119792,10.4278646 10.9010417,11.6018229 9.91875,12.50625 C8.93046875,13.4106771 7.66666667,13.8628906 6.12734375,13.8628906 C4.22265625,13.8628906 2.72526042,13.2519531 1.63515625,12.0300781 C0.545052083,10.8022135 0,9.11914062 0,6.98085937 C0,4.66888021 0.619921875,2.88697917 1.85976562,1.63515625 C2.93789062,0.545052083 4.30950521,0 5.97460937,0 Z"></path></clipPath><clipPath id="i12"><path d="M2.5515625,0 L2.5515625,4.68085937 C2.92291667,4.11184896 3.35266927,3.71503906 3.84082031,3.49042969 C4.32897135,3.26582031 4.84257812,3.15351563 5.38164062,3.15351563 C5.98658854,3.15351563 6.53613281,3.25833333 7.03027344,3.46796875 C7.52441406,3.67760417 7.93020833,3.99804688 8.24765625,4.42929688 C8.5171875,4.79466146 8.68190104,5.17050781 8.74179687,5.55683594 C8.80169271,5.94316406 8.83164062,6.57356771 8.83164062,7.44804688 L8.83164062,13.1980469 L6.2171875,13.1980469 L6.2171875,7.24140625 C6.2171875,6.71432292 6.12734375,6.2890625 5.94765625,5.965625 C5.7140625,5.51041667 5.27083333,5.2828125 4.61796875,5.2828125 C3.94114583,5.2828125 3.42753906,5.50891927 3.07714844,5.96113281 C2.72675781,6.41334635 2.5515625,7.05872396 2.5515625,7.89726563 L2.5515625,13.1980469 L0,13.1980469 L0,0 L2.5515625,0 Z"></path></clipPath><clipPath id="i13"><path d="M4.6359375,0 C5.45052083,0 6.18424479,0.152734375 6.83710937,0.458203125 C7.48997396,0.763671875 8.02903646,1.24583333 8.45429687,1.9046875 C8.83763021,2.48567708 9.08619792,3.15950521 9.2,3.92617187 C9.26588542,4.37539063 9.29283854,5.02226563 9.28085937,5.86679688 L2.57851562,5.86679688 C2.61445312,6.84908854 2.92291667,7.53789063 3.50390625,7.93320312 C3.85729167,8.17877604 4.28255208,8.3015625 4.7796875,8.3015625 C5.30677083,8.3015625 5.73502604,8.15182292 6.06445312,7.85234375 C6.24414062,7.690625 6.40286458,7.46601562 6.540625,7.17851563 L9.15507812,7.17851563 C9.08919271,7.75950521 8.78671875,8.34947917 8.24765625,8.9484375 C7.40911458,9.90078125 6.23515625,10.3769531 4.72578125,10.3769531 C3.47994792,10.3769531 2.38085937,9.97565104 1.42851562,9.17304688 C0.476171875,8.37044271 0,7.06471354 0,5.25585937 C0,3.56080729 0.429752604,2.26106771 1.28925781,1.35664063 C2.14876302,0.452213542 3.26432292,0 4.6359375,0 Z M4.6359375,2.11132812 C4.04296875,2.11132812 3.58326823,2.29700521 3.25683594,2.66835938 C2.93040365,3.03971354 2.72526042,3.54283854 2.64140625,4.17773438 L6.62148437,4.17773438 C6.57955729,3.50091146 6.37441406,2.98730469 6.00605469,2.63691406 C5.63769531,2.28652344 5.18098958,2.11132812 4.6359375,2.11132812 Z"></path></clipPath><clipPath id="i14"><path d="M5.34570313,0 C5.39361979,0 5.43404948,0.00149739583 5.46699219,0.0044921875 C5.4999349,0.00748697917 5.57330729,0.0119791667 5.68710938,0.01796875 L5.68710938,2.64140625 C5.52539063,2.6234375 5.38164063,2.61145833 5.25585938,2.60546875 C5.13007813,2.59947917 5.02825521,2.59648437 4.95039063,2.59648437 C3.92018229,2.59648437 3.22838542,2.93190104 2.875,3.60273437 C2.67734375,3.98007813 2.57851563,4.56106771 2.57851563,5.34570313 L2.57851563,10.0265625 L0,10.0265625 L0,0.23359375 L2.44375,0.23359375 L2.44375,1.940625 C2.8390625,1.28776042 3.18346354,0.841536458 3.47695313,0.601953125 C3.95611979,0.200651042 4.57903646,0 5.34570313,0 Z"></path></clipPath><clipPath id="i15"><path d="M5.34570312,0 C5.39361979,0 5.43404948,0.00149739583 5.46699219,0.0044921875 C5.4999349,0.00748697917 5.57330729,0.0119791667 5.68710937,0.01796875 L5.68710937,2.64140625 C5.52539062,2.6234375 5.38164062,2.61145833 5.25585937,2.60546875 C5.13007812,2.59947917 5.02825521,2.59648437 4.95039062,2.59648437 C3.92018229,2.59648437 3.22838542,2.93190104 2.875,3.60273437 C2.67734375,3.98007813 2.57851562,4.56106771 2.57851562,5.34570313 L2.57851562,10.0265625 L0,10.0265625 L0,0.23359375 L2.44375,0.23359375 L2.44375,1.940625 C2.8390625,1.28776042 3.18346354,0.841536458 3.47695312,0.601953125 C3.95611979,0.200651042 4.57903646,0 5.34570312,0 Z"></path></clipPath><clipPath id="i16"><path d="M2.84804687,0 L4.98632812,7.2234375 L7.0078125,0 L9.73007812,0 L6.36992187,9.63125 C5.72304687,11.4880208 5.2109375,12.6395182 4.83359375,13.0857422 C4.45625,13.5319661 3.7015625,13.7550781 2.56953125,13.7550781 C2.34192708,13.7550781 2.15924479,13.7535807 2.02148437,13.7505859 C1.88372396,13.7475911 1.67708333,13.7371094 1.4015625,13.7191406 L1.4015625,11.6707031 L1.725,11.6886719 C1.9765625,11.700651 2.21614583,11.6916667 2.44375,11.6617188 C2.67135417,11.6317708 2.86302083,11.5628906 3.01875,11.4550781 C3.16848958,11.3532552 3.3077474,11.140625 3.43652344,10.8171875 C3.56529948,10.49375 3.61770833,10.2960938 3.59375,10.2242188 L0,0 L2.84804687,0 Z"></path></clipPath><clipPath id="i17"><path d="M10.7273438,0 L10.7273438,2.34492188 L6.76523438,2.34492188 L6.76523438,13.2429688 L3.98007813,13.2429688 L3.98007813,2.34492188 L0,2.34492188 L0,0 L10.7273438,0 Z"></path></clipPath><clipPath id="i18"><path d="M5.00429687,0 C6.68736979,0 7.9421875,0.518098958 8.76875,1.55429688 C9.5953125,2.59049479 10.0085937,3.81536458 10.0085937,5.22890625 C10.0085937,6.66640625 9.5953125,7.89576823 8.76875,8.91699219 C7.9421875,9.93821615 6.68736979,10.4488281 5.00429687,10.4488281 C3.32122396,10.4488281 2.06640625,9.93821615 1.23984375,8.91699219 C0.41328125,7.89576823 0,6.66640625 0,5.22890625 C0,3.81536458 0.41328125,2.59049479 1.23984375,1.55429688 C2.06640625,0.518098958 3.32122396,0 5.00429687,0 Z M4.9953125,2.16523437 C4.24661458,2.16523437 3.67011719,2.43027344 3.26582031,2.96035156 C2.86152344,3.49042969 2.659375,4.24661458 2.659375,5.22890625 C2.659375,6.21119792 2.86152344,6.96888021 3.26582031,7.50195312 C3.67011719,8.03502604 4.24661458,8.3015625 4.9953125,8.3015625 C5.74401042,8.3015625 6.31901042,8.03502604 6.7203125,7.50195312 C7.12161458,6.96888021 7.32226562,6.21119792 7.32226562,5.22890625 C7.32226562,4.24661458 7.12161458,3.49042969 6.7203125,2.96035156 C6.31901042,2.43027344 5.74401042,2.16523437 4.9953125,2.16523437 Z"></path></clipPath><clipPath id="i19"><path d="M10.9878906,0 C11.4191406,0 11.844401,0.0838541667 12.2636719,0.2515625 C12.6829427,0.419270833 13.0632813,0.712760417 13.4046875,1.13203125 C13.6802083,1.4734375 13.8658854,1.89270833 13.9617188,2.38984375 C14.0216146,2.71927083 14.0515625,3.20143229 14.0515625,3.83632813 L14.0335938,10.0085938 L11.4101563,10.0085938 L11.4101563,3.7734375 C11.4101563,3.40208333 11.3502604,3.09661458 11.2304688,2.85703125 C11.0028646,2.40182292 10.5835938,2.17421875 9.97265625,2.17421875 C9.26588542,2.17421875 8.77773438,2.46770833 8.50820313,3.0546875 C8.37044271,3.36614583 8.3015625,3.74049479 8.3015625,4.17773438 L8.3015625,10.0085938 L5.72304688,10.0085938 L5.72304688,4.17773438 C5.72304688,3.59674479 5.66315104,3.17447917 5.54335938,2.9109375 C5.32773438,2.43776042 4.90546875,2.20117188 4.2765625,2.20117188 C3.54583333,2.20117188 3.0546875,2.43776042 2.803125,2.9109375 C2.66536458,3.18046875 2.59648438,3.58177083 2.59648438,4.11484375 L2.59648438,10.0085938 L0,10.0085938 L0,0.23359375 L2.48867188,0.23359375 L2.48867188,1.66210938 C2.80611979,1.15299479 3.10559896,0.790625 3.38710938,0.575 C3.88424479,0.191666667 4.528125,0 5.31875,0 C6.06744792,0 6.67239583,0.164713542 7.13359375,0.494140625 C7.50494792,0.799609375 7.78645833,1.19192708 7.978125,1.67109375 C8.31354167,1.09609375 8.72981771,0.673828125 9.22695313,0.404296875 C9.75403646,0.134765625 10.3410156,0 10.9878906,0 Z"></path></clipPath><clipPath id="i20"><path d="M4.51914062,0 C5.59127604,0 6.54361979,0.212630208 7.37617187,0.637890625 C8.20872396,1.06315104 8.625,1.86575521 8.625,3.04570313 L8.625,7.53789063 C8.625,7.84934896 8.63098958,8.22669271 8.64296875,8.66992188 C8.6609375,9.00533854 8.71184896,9.23294271 8.79570312,9.35273438 C8.87955729,9.47252604 9.00533854,9.57135417 9.17304687,9.64921875 L9.17304687,10.0265625 L6.38789062,10.0265625 C6.31002604,9.82890625 6.25611979,9.64322917 6.22617187,9.46953125 C6.19622396,9.29583333 6.17226562,9.09817708 6.15429687,8.8765625 C5.80091146,9.25989583 5.39361979,9.58632813 4.93242187,9.85585938 C4.38138021,10.1733073 3.75846354,10.3320313 3.06367187,10.3320313 C2.17721354,10.3320313 1.44498698,10.0789714 0.866992187,9.57285156 C0.288997396,9.06673177 0,8.34947917 0,7.42109375 C0,6.2171875 0.464192708,5.34570313 1.39257812,4.80664063 C1.90169271,4.51315104 2.65039062,4.30351563 3.63867187,4.17773438 L4.51015625,4.06992188 C4.98333333,4.01002604 5.32174479,3.93515625 5.52539062,3.8453125 C5.89075521,3.68958333 6.0734375,3.44700521 6.0734375,3.11757813 C6.0734375,2.71627604 5.93417969,2.43925781 5.65566406,2.28652344 C5.37714844,2.13378906 4.96835937,2.05742188 4.42929687,2.05742188 C3.82434896,2.05742188 3.39609375,2.20716146 3.14453125,2.50664063 C2.96484375,2.72825521 2.84505208,3.02773438 2.78515625,3.40507813 L0.314453125,3.40507813 C0.368359375,2.54856771 0.607942708,1.84479167 1.03320312,1.29375 C1.71002604,0.43125 2.87200521,0 4.51914062,0 Z M6.06445312,5.26484375 C5.90273437,5.36666667 5.73951823,5.44902344 5.57480469,5.51191406 C5.41009115,5.57480469 5.18398437,5.63320313 4.89648437,5.68710938 L4.32148437,5.79492188 C3.78242187,5.89075521 3.39609375,6.00755208 3.1625,6.1453125 C2.7671875,6.37890625 2.56953125,6.74127604 2.56953125,7.23242188 C2.56953125,7.66966146 2.69231771,7.98411458 2.93789062,8.17578125 C3.17747396,8.3734375 3.47096354,8.47226563 3.81835937,8.47226563 C4.36940104,8.47226563 4.87701823,8.31054688 5.34121094,7.98710938 C5.80540365,7.66367188 6.04648437,7.07369792 6.06445312,6.2171875 L6.06445312,5.26484375 Z"></path></clipPath><clipPath id="i21"><path d="M3.89921875,0 L3.89921875,2.73125 L5.48945312,2.73125 L5.48945312,4.55507813 L3.89921875,4.55507813 L3.89921875,9.73007813 C3.89921875,10.1313802 3.95013021,10.3814453 4.05195312,10.4802734 C4.15377604,10.5791016 4.46523437,10.6285156 4.98632812,10.6285156 C5.06419271,10.6285156 5.14654948,10.6270182 5.23339844,10.6240234 C5.3202474,10.6210286 5.40559896,10.6165365 5.48945312,10.6105469 L5.48945312,12.5242188 L4.2765625,12.5691406 C3.06666667,12.6110677 2.24010417,12.4014323 1.796875,11.9402344 C1.509375,11.6467448 1.365625,11.1945313 1.365625,10.5835938 L1.365625,4.55507813 L0,4.55507813 L0,2.73125 L1.365625,2.73125 L1.365625,0 L3.89921875,0 Z"></path></clipPath><clipPath id="i22"><path d="M4.6359375,0 C5.45052083,0 6.18424479,0.152734375 6.83710937,0.458203125 C7.48997396,0.763671875 8.02903646,1.24583333 8.45429687,1.9046875 C8.83763021,2.48567708 9.08619792,3.15950521 9.2,3.92617187 C9.26588542,4.37539063 9.29283854,5.02226563 9.28085937,5.86679688 L2.57851562,5.86679688 C2.61445312,6.84908854 2.92291667,7.53789063 3.50390625,7.93320312 C3.85729167,8.17877604 4.28255208,8.3015625 4.7796875,8.3015625 C5.30677083,8.3015625 5.73502604,8.15182292 6.06445312,7.85234375 C6.24414062,7.690625 6.40286458,7.46601562 6.540625,7.17851563 L9.15507812,7.17851563 C9.08919271,7.75950521 8.78671875,8.34947917 8.24765625,8.9484375 C7.40911458,9.90078125 6.23515625,10.3769531 4.72578125,10.3769531 C3.47994792,10.3769531 2.38085937,9.97565104 1.42851562,9.17304688 C0.476171875,8.37044271 0,7.06471354 0,5.25585937 C0,3.56080729 0.429752604,2.26106771 1.28925781,1.35664063 C2.14876302,0.452213542 3.26432292,0 4.6359375,0 Z M4.6359375,2.11132812 C4.04296875,2.11132812 3.58326823,2.29700521 3.25683594,2.66835938 C2.93040365,3.03971354 2.72526042,3.54283854 2.64140625,4.17773438 L6.62148437,4.17773438 C6.57955729,3.50091146 6.37441406,2.98730469 6.00605469,2.63691406 C5.63769531,2.28652344 5.18098958,2.11132812 4.6359375,2.11132812 Z"></path></clipPath><clipPath id="i23"><path d="M4.35742187,0 C5.57929687,0 6.5765625,0.242578125 7.34921875,0.727734375 C8.11588542,1.21888021 8.55611979,2.06341146 8.66992187,3.26132813 L6.109375,3.26132813 C6.0734375,2.93190104 5.98059896,2.67135417 5.83085937,2.4796875 C5.54934896,2.13229167 5.07018229,1.95859375 4.39335937,1.95859375 C3.83632812,1.95859375 3.43951823,2.04544271 3.20292969,2.21914063 C2.96634115,2.39283854 2.84804687,2.59648438 2.84804687,2.83007813 C2.84804687,3.12356771 2.97382812,3.33619792 3.22539062,3.46796875 C3.47695312,3.60572917 4.36640625,3.84231771 5.89375,4.17773438 C6.91197917,4.41731771 7.67565104,4.7796875 8.18476562,5.26484375 C8.68789062,5.75598958 8.93945312,6.36992188 8.93945312,7.10664062 C8.93945312,8.07695312 8.57858073,8.86907552 7.85683594,9.48300781 C7.13509115,10.0969401 6.01953125,10.4039063 4.51015625,10.4039063 C2.97083333,10.4039063 1.8343099,10.0789714 1.10058594,9.42910156 C0.366861979,8.77923177 0,7.95117188 0,6.94492188 L2.59648437,6.94492188 C2.65039062,7.40013021 2.7671875,7.72356771 2.946875,7.91523438 C3.26432292,8.25664062 3.85130208,8.42734375 4.7078125,8.42734375 C5.2109375,8.42734375 5.61074219,8.35247396 5.90722656,8.20273438 C6.20371094,8.05299479 6.35195312,7.82838542 6.35195312,7.52890625 C6.35195312,7.24140625 6.23216146,7.02278646 5.99257812,6.87304688 C5.75299479,6.72330729 4.86354167,6.46575521 3.32421875,6.10039063 C2.21614583,5.82486979 1.43450521,5.48046875 0.979296875,5.0671875 C0.524088542,4.65989583 0.296484375,4.07291667 0.296484375,3.30625 C0.296484375,2.40182292 0.651367187,1.62467448 1.36113281,0.974804688 C2.07089844,0.324934896 3.06966146,0 4.35742187,0 Z"></path></clipPath></defs><g transform="translate(-136.0 -7.0)"><g clip-path="url(#i0)"><g transform="translate(136.0 7.0)"><g transform=""><g clip-path="url(#i1)"><g transform=""><g transform=""><g clip-path="url(#i1)"><polygon points="-8.95117314e-16,3.66286862e-15 49.517127,3.66286862e-15 49.517127,45.01557 -8.95117314e-16,45.01557 -8.95117314e-16,3.66286862e-15" stroke="none" fill="url(#i2)"></polygon></g></g></g></g></g><g transform="translate(19.80156249999999 16.405468749999997)"><g transform="translate(0.0 0.25156250000000036)"><g clip-path="url(#i3)"><polygon points="0,0 11.2035156,0 11.2035156,13.2429688 0,13.2429688 0,0" stroke="none" fill="#FFFFFF"></polygon></g></g><g transform="translate(13.054296874999999 3.4679687500000007)"><g clip-path="url(#i4)"><polygon points="0,0 5.68710937,0 5.68710937,10.0265625 0,10.0265625 0,0" stroke="none" fill="#FFFFFF"></polygon></g></g><g transform="translate(19.469140624999998 3.4410156250000004)"><g clip-path="url(#i5)"><polygon points="0,0 9.2836238,0 9.2836238,10.3769531 0,10.3769531 0,0" stroke="none" fill="#FFFFFF"></polygon></g></g><g transform="translate(29.81015625 3.46796875)"><g clip-path="url(#i6)"><polygon points="0,0 9.17304688,0 9.17304688,10.3320313 0,10.3320313 0,0" stroke="none" fill="#FFFFFF"></polygon></g></g><g transform="translate(40.079296875 0.26953125)"><g clip-path="url(#i7)"><polygon points="0,0 9.54140625,0 9.54140625,13.5304688 0,13.5304688 0,0" stroke="none" fill="#FFFFFF"></polygon></g></g><g transform="translate(50.941406249999986 0.11679687500000036)"><g clip-path="url(#i8)"><polygon points="0,0 5.66015625,0 5.66015625,13.3777344 0,13.3777344 0,0" stroke="none" fill="#FFFFFF"></polygon></g></g><g transform="translate(58.003125 3.7015624999999996)"><g clip-path="url(#i9)"><polygon points="0,0 8.840625,0 8.840625,10.0085938 0,10.0085938 0,0" stroke="none" fill="#FFFFFF"></polygon></g></g><g transform="translate(69.36835937499998 0.25156250000000036)"><g clip-path="url(#i10)"><polygon points="0,0 2.56054688,0 2.56054688,13.2429688 0,13.2429688 0,0" stroke="none" fill="#FFFFFF"></polygon></g></g><g transform="translate(79.17031249999997 0.0)"><g clip-path="url(#i11)"><polygon points="0,0 11.7785156,0 11.7785156,13.8628906 0,13.8628906 0,0" stroke="none" fill="#FFFFFF"></polygon></g></g><g transform="translate(92.84453124999999 0.29648437500000036)"><g clip-path="url(#i12)"><polygon points="0,0 8.83164062,0 8.83164062,13.1980469 0,13.1980469 0,0" stroke="none" fill="#FFFFFF"></polygon></g></g><g transform="translate(103.29335937499998 3.4410156250000004)"><g clip-path="url(#i13)"><polygon points="0,0 9.2836238,0 9.2836238,10.3769531 0,10.3769531 0,0" stroke="none" fill="#FFFFFF"></polygon></g></g><g transform="translate(114.27226562499997 3.4679687500000007)"><g clip-path="url(#i14)"><polygon points="0,0 5.68710938,0 5.68710938,10.0265625 0,10.0265625 0,0" stroke="none" fill="#FFFFFF"></polygon></g></g><g transform="translate(121.43281249999998 3.4679687500000007)"><g clip-path="url(#i15)"><polygon points="0,0 5.68710937,0 5.68710937,10.0265625 0,10.0265625 0,0" stroke="none" fill="#FFFFFF"></polygon></g></g><g transform="translate(127.61406249999999 3.7015625000000005)"><g clip-path="url(#i16)"><polygon points="0,0 9.73007812,0 9.73007812,13.7550781 0,13.7550781 0,0" stroke="none" fill="#FFFFFF"></polygon></g></g><g transform="translate(143.06718749999993 0.25156250000000036)"><g clip-path="url(#i17)"><polygon points="0,0 10.7273438,0 10.7273438,13.2429688 0,13.2429688 0,0" stroke="none" fill="#FFFFFF"></polygon></g></g><g transform="translate(154.60312499999998 3.3871093749999996)"><g clip-path="url(#i18)"><polygon points="0,0 10.0085937,0 10.0085937,10.4488281 0,10.4488281 0,0" stroke="none" fill="#FFFFFF"></polygon></g></g><g transform="translate(166.39960937499995 3.4859374999999995)"><g clip-path="url(#i19)"><polygon points="0,0 14.0515625,0 14.0515625,10.0085938 0,10.0085938 0,0" stroke="none" fill="#FFFFFF"></polygon></g></g><g transform="translate(182.14023437499998 3.46796875)"><g clip-path="url(#i20)"><polygon points="0,0 9.17304687,0 9.17304687,10.3320313 0,10.3320313 0,0" stroke="none" fill="#FFFFFF"></polygon></g></g><g transform="translate(192.03203125 1.0601562500000004)"><g clip-path="url(#i21)"><polygon points="0,0 5.48945312,0 5.48945312,12.5743815 0,12.5743815 0,0" stroke="none" fill="#FFFFFF"></polygon></g></g><g transform="translate(198.56367187499995 3.3871093749999996)"><g clip-path="url(#i18)"><polygon points="0,0 10.0085937,0 10.0085937,10.4488281 0,10.4488281 0,0" stroke="none" fill="#FFFFFF"></polygon></g></g><g transform="translate(209.63242187499998 3.4410156250000004)"><g clip-path="url(#i22)"><polygon points="0,0 9.2836238,0 9.2836238,10.3769531 0,10.3769531 0,0" stroke="none" fill="#FFFFFF"></polygon></g></g><g transform="translate(220.03632812499998 3.423046875)"><g clip-path="url(#i23)"><polygon points="0,0 8.93945312,0 8.93945312,10.4039063 0,10.4039063 0,0" stroke="none" fill="#FFFFFF"></polygon></g></g></g></g></g></g></svg>