<?xml version="1.0" encoding="UTF-8"?><svg version="1.1" width="20px" height="20px" viewBox="0 0 20.0 20.0" xmlns="http://www.w3.org/2000/svg" xmlns:xlink="http://www.w3.org/1999/xlink"><defs><clipPath id="i0"><path d="M1440,0 L1440,1156 L0,1156 L0,0 L1440,0 Z"></path></clipPath><clipPath id="i1"><path d="M7.96562696,0 C12.3578044,0 15.9312539,3.62251167 15.9312539,8.0749921 C15.9312539,9.98069024 15.2697605,11.8112558 14.0624486,13.2661588 L18.7580125,18.2168311 C19.1552548,18.6356774 19.1420942,19.3034442 18.729267,19.7061405 C18.5349749,19.8957273 18.2790359,20 18.0092436,20 C17.7242126,20 17.45823,19.8851947 17.2604746,19.6770003 L12.5292385,14.6887617 C11.1858182,15.6458238 9.61451173,16.1499842 7.96562696,16.1499842 C3.57344952,16.1499842 0,12.5274725 0,8.0749921 C0,3.62251167 3.57344952,0 7.96562696,0 Z M7.96562696,2.10651968 C4.71911447,2.10651968 2.07798964,4.78390619 2.07798964,8.0749921 C2.07798964,11.366078 4.71911447,14.0434645 7.96562696,14.0434645 C11.2121394,14.0434645 13.8532643,11.366078 13.8532643,8.0749921 C13.8532643,4.78390619 11.2121394,2.10651968 7.96562696,2.10651968 Z"></path></clipPath></defs><g transform="translate(-152.0 -83.0)"><g clip-path="url(#i0)"><g transform="translate(0.0 60.0)"><g transform="translate(136.0 14.0)"><g transform="translate(14.0 7.0)"><g transform="translate(2.0 2.0)"><g clip-path="url(#i1)"><polygon points="0,0 19.047619,0 19.047619,20 0,20 0,0" stroke="none" fill="#C42521"></polygon></g></g></g></g></g></g></g></svg>